<svg xmlns="http://www.w3.org/2000/svg" xmlns:xlink="http://www.w3.org/1999/xlink" width="160" zoomAndPan="magnify" viewBox="0 0 120 36.000001" height="48" preserveAspectRatio="xMidYMid meet" version="1.2"><defs><clipPath id="4d339ad7e1"><path d="M 5.125 3.503906 L 34.3125 3.503906 L 34.3125 32.691406 L 5.125 32.691406 Z M 5.125 3.503906 "/></clipPath></defs><g id="ef5bdc7a4c"><g clip-rule="nonzero" clip-path="url(#4d339ad7e1)"><path style=" stroke:none;fill-rule:evenodd;fill:#177267;fill-opacity:1;" d="M 17.332031 26.761719 L 15.167969 30.507812 C 15.128906 30.570312 15.066406 30.609375 14.992188 30.613281 L 12.511719 30.652344 C 12.433594 30.652344 12.363281 30.613281 12.328125 30.546875 L 11.121094 28.375 C 11.085938 28.3125 11.085938 28.234375 11.121094 28.171875 L 13.285156 24.425781 L 9.539062 26.589844 C 9.476562 26.625 9.398438 26.625 9.335938 26.589844 L 7.164062 25.382812 C 7.097656 25.347656 7.058594 25.277344 7.058594 25.203125 L 7.097656 22.71875 C 7.101562 22.644531 7.140625 22.578125 7.203125 22.542969 L 10.949219 20.378906 L 6.621094 20.378906 C 6.550781 20.378906 6.484375 20.34375 6.445312 20.28125 L 5.171875 18.148438 C 5.132812 18.085938 5.132812 18.003906 5.171875 17.9375 L 6.445312 15.808594 C 6.484375 15.746094 6.550781 15.707031 6.621094 15.707031 L 10.953125 15.707031 L 7.203125 13.546875 C 7.140625 13.507812 7.101562 13.441406 7.101562 13.371094 L 7.0625 10.886719 C 7.058594 10.8125 7.101562 10.742188 7.167969 10.703125 L 9.335938 9.5 C 9.398438 9.464844 9.476562 9.464844 9.539062 9.5 L 13.289062 11.664062 L 11.125 7.914062 C 11.089844 7.851562 11.089844 7.773438 11.125 7.710938 L 12.328125 5.542969 C 12.367188 5.476562 12.4375 5.4375 12.511719 5.4375 L 14.996094 5.476562 C 15.066406 5.476562 15.132812 5.515625 15.167969 5.578125 L 17.332031 9.324219 L 17.332031 5 C 17.332031 4.929688 17.371094 4.859375 17.433594 4.824219 L 19.5625 3.546875 C 19.625 3.507812 19.707031 3.507812 19.773438 3.546875 L 21.902344 4.824219 C 21.964844 4.859375 22.003906 4.929688 22.003906 5 L 22.003906 9.328125 L 24.164062 5.578125 C 24.203125 5.515625 24.269531 5.476562 24.339844 5.476562 L 26.824219 5.4375 C 26.898438 5.4375 26.96875 5.476562 27.007812 5.542969 L 28.210938 7.710938 C 28.246094 7.777344 28.246094 7.851562 28.210938 7.914062 L 26.046875 11.664062 L 29.792969 9.5 C 29.855469 9.464844 29.933594 9.460938 30 9.496094 L 32.167969 10.703125 C 32.234375 10.742188 32.273438 10.8125 32.273438 10.886719 L 32.234375 13.371094 C 32.234375 13.441406 32.195312 13.507812 32.132812 13.546875 L 28.382812 15.707031 L 32.710938 15.707031 C 32.785156 15.707031 32.851562 15.746094 32.886719 15.808594 L 34.164062 17.9375 C 34.203125 18.003906 34.203125 18.085938 34.164062 18.148438 L 32.886719 20.28125 C 32.851562 20.34375 32.785156 20.378906 32.710938 20.378906 L 28.386719 20.378906 L 32.132812 22.542969 C 32.195312 22.582031 32.234375 22.648438 32.234375 22.71875 L 32.273438 25.199219 C 32.277344 25.277344 32.234375 25.347656 32.167969 25.382812 L 30 26.589844 C 29.9375 26.625 29.859375 26.625 29.796875 26.589844 L 26.050781 24.425781 L 28.214844 28.171875 C 28.25 28.234375 28.25 28.3125 28.214844 28.375 L 27.007812 30.542969 C 26.972656 30.613281 26.902344 30.652344 26.824219 30.652344 L 24.34375 30.609375 C 24.269531 30.609375 24.207031 30.570312 24.167969 30.507812 L 22.003906 26.761719 L 22.003906 31.089844 C 22.003906 31.160156 21.964844 31.226562 21.902344 31.265625 L 19.773438 32.539062 C 19.707031 32.578125 19.625 32.578125 19.5625 32.539062 L 17.433594 31.265625 C 17.371094 31.226562 17.332031 31.160156 17.332031 31.089844 Z M 19.667969 22.714844 L 17.742188 26.050781 L 17.742188 30.972656 L 19.667969 32.125 L 21.589844 30.972656 L 21.589844 26.050781 Z M 13.996094 24.015625 L 11.535156 28.277344 L 12.625 30.238281 L 14.871094 30.203125 L 17.332031 25.9375 L 17.332031 22.089844 Z M 22.003906 21.617188 L 24.929688 23.304688 L 23.242188 20.378906 L 22.003906 20.378906 L 22.003906 25.933594 L 24.464844 30.203125 L 26.710938 30.238281 L 27.800781 28.277344 L 25.339844 24.015625 L 22.003906 22.089844 Z M 25.640625 23.714844 L 29.902344 26.175781 L 31.863281 25.085938 L 31.828125 22.84375 L 27.5625 20.378906 L 23.714844 20.378906 Z M 15.621094 20.378906 L 11.773438 20.378906 L 7.507812 22.839844 L 7.472656 25.085938 L 9.433594 26.175781 L 13.695312 23.714844 Z M 19.429688 22.304688 L 18.8125 21.234375 L 17.742188 21.851562 L 17.742188 25.226562 Z M 20.523438 21.234375 L 19.90625 22.304688 L 21.589844 25.222656 L 21.589844 21.851562 Z M 14.40625 23.304688 L 17.332031 21.617188 L 17.332031 20.378906 L 16.054688 20.378906 L 16.09375 20.378906 Z M 16.832031 16.984375 L 17.039062 17.339844 L 15.816406 18.042969 L 15.40625 17.808594 L 16.679688 18.542969 L 16.476562 18.898438 L 15.40625 18.28125 L 12.484375 19.96875 L 15.859375 19.96875 L 15.621094 20.378906 C 15.621094 20.378906 16.679688 18.542969 16.679688 18.542969 L 17.039062 18.75 L 16.332031 19.96875 L 17.742188 19.96875 L 17.742188 21.378906 L 18.605469 20.878906 L 18.960938 20.675781 L 19.667969 21.894531 L 20.371094 20.675781 L 21.589844 21.378906 L 21.589844 19.96875 L 23 19.96875 L 22.296875 18.75 L 23.515625 18.042969 L 22.296875 17.339844 L 23 16.121094 L 21.589844 16.121094 L 21.589844 14.710938 L 20.726562 15.210938 L 20.371094 15.414062 L 19.667969 14.195312 L 18.960938 15.414062 L 18.605469 15.210938 L 17.742188 14.710938 L 17.742188 16.121094 L 16.332031 16.121094 Z M 11.664062 16.121094 L 6.738281 16.121094 L 5.585938 18.042969 L 6.738281 19.96875 L 11.660156 19.96875 L 14.996094 18.042969 Z M 24.339844 18.042969 L 24.339844 18.046875 L 27.671875 19.96875 L 32.59375 19.96875 L 33.746094 18.042969 L 32.59375 16.121094 L 27.671875 16.121094 Z M 23.929688 18.28125 L 22.855469 18.898438 L 23.472656 19.96875 L 26.851562 19.96875 Z M 22.855469 17.191406 L 23.929688 17.808594 L 26.851562 16.121094 L 23.476562 16.121094 Z M 15.859375 16.121094 L 12.484375 16.121094 L 15.40625 17.808594 L 16.476562 17.191406 Z M 23.710938 15.707031 L 27.5625 15.707031 L 31.824219 13.246094 L 31.859375 11.003906 L 29.898438 9.914062 L 25.636719 12.375 Z M 22.003906 15.707031 L 23.238281 15.707031 L 24.925781 12.785156 L 22.003906 14.472656 Z M 16.097656 15.707031 L 17.332031 15.707031 L 17.332031 14.472656 L 14.414062 12.789062 Z M 15.621094 15.707031 L 15.625 15.707031 L 13.703125 12.378906 L 9.433594 9.914062 L 7.472656 11.003906 L 7.511719 13.246094 L 11.773438 15.707031 Z M 25.335938 12.074219 L 27.796875 7.8125 L 26.707031 5.851562 L 24.464844 5.886719 L 19.902344 13.785156 L 19.667969 13.375 L 20.558594 14.921875 L 20.523438 14.855469 L 22.003906 14 Z M 17.742188 14.234375 L 18.8125 14.855469 L 19.429688 13.78125 L 14.871094 5.886719 L 12.628906 5.851562 L 11.539062 7.808594 L 14 12.074219 L 17.332031 14 L 17.332031 10.148438 L 17.742188 10.859375 Z M 22.003906 14 L 21.589844 14.234375 L 21.589844 10.859375 L 22.003906 10.148438 Z M 21.589844 10.039062 L 21.589844 5.117188 L 19.667969 3.964844 L 17.742188 5.117188 L 17.742188 10.035156 L 19.667969 13.371094 Z M 21.589844 10.039062 "/></g><g style="fill:#177267;fill-opacity:1;"><g transform="translate(35.402815, 22.524628)"><path style="stroke:none" d="M 11.09375 0.59375 C 10.15625 0.59375 9.488281 0.375 9.09375 -0.0625 C 8.707031 -0.5 8.515625 -1.222656 8.515625 -2.234375 L 8.515625 -7.046875 L 5.46875 0 L 5.125 0 L 1.640625 -7.265625 L 1.640625 0 L 1.03125 0 L 1.03125 -8.65625 L 2.5 -8.65625 L 5.65625 -2.0625 L 8.5 -8.65625 L 10.015625 -8.65625 L 10.015625 -2.234375 C 10.015625 -1.421875 10.097656 -0.804688 10.265625 -0.390625 C 10.429688 0.0234375 10.707031 0.25 11.09375 0.28125 Z M 11.09375 0.59375 "/></g></g><g style="fill:#177267;fill-opacity:1;"><g transform="translate(46.705586, 22.524628)"><path style="stroke:none" d="M 1.890625 -9.34375 C 1.617188 -9.34375 1.40625 -9.429688 1.25 -9.609375 C 1.09375 -9.796875 1.015625 -10.019531 1.015625 -10.28125 C 1.015625 -10.488281 1.070312 -10.648438 1.1875 -10.765625 C 1.3125 -10.890625 1.476562 -10.953125 1.6875 -10.953125 C 1.957031 -10.953125 2.171875 -10.863281 2.328125 -10.6875 C 2.484375 -10.507812 2.5625 -10.289062 2.5625 -10.03125 C 2.5625 -9.820312 2.5 -9.65625 2.375 -9.53125 C 2.25 -9.40625 2.085938 -9.34375 1.890625 -9.34375 Z M 2.265625 0 C 1.953125 0 1.710938 -0.046875 1.546875 -0.140625 C 1.378906 -0.234375 1.257812 -0.394531 1.1875 -0.625 C 1.125 -0.863281 1.09375 -1.207031 1.09375 -1.65625 L 1.09375 -8.65625 L 2.578125 -8.65625 L 2.578125 -1.65625 C 2.578125 -1.207031 2.640625 -0.875 2.765625 -0.65625 C 2.890625 -0.445312 3.132812 -0.34375 3.5 -0.34375 L 3.6875 -0.34375 L 3.6875 0 Z M 2.265625 0 "/></g></g><g style="fill:#177267;fill-opacity:1;"><g transform="translate(50.586818, 22.524628)"><path style="stroke:none" d="M 1.3125 -7.015625 C 1.3125 -7.453125 1.25 -7.78125 1.125 -8 C 1 -8.21875 0.753906 -8.328125 0.390625 -8.328125 L 0.203125 -8.328125 L 0.203125 -8.65625 L 1.609375 -8.65625 C 1.929688 -8.65625 2.171875 -8.609375 2.328125 -8.515625 C 2.492188 -8.421875 2.613281 -8.253906 2.6875 -8.015625 C 2.757812 -7.785156 2.796875 -7.453125 2.796875 -7.015625 L 2.796875 -4.765625 L 6.5 -4.765625 L 6.5 -8.65625 L 8 -8.65625 L 8 -1.65625 C 8 -1.207031 8.054688 -0.875 8.171875 -0.65625 C 8.296875 -0.445312 8.539062 -0.34375 8.90625 -0.34375 L 9.09375 -0.34375 L 9.09375 0 L 7.671875 0 C 7.359375 0 7.117188 -0.046875 6.953125 -0.140625 C 6.785156 -0.234375 6.664062 -0.394531 6.59375 -0.625 C 6.53125 -0.863281 6.5 -1.207031 6.5 -1.65625 L 6.5 -4.203125 L 2.796875 -4.203125 L 2.796875 0 L 1.3125 0 Z M 1.3125 -7.015625 "/></g></g><g style="fill:#177267;fill-opacity:1;"><g transform="translate(59.883412, 22.524628)"><path style="stroke:none" d="M 11.09375 0.59375 C 10.15625 0.59375 9.488281 0.375 9.09375 -0.0625 C 8.707031 -0.5 8.515625 -1.222656 8.515625 -2.234375 L 8.515625 -7.046875 L 5.46875 0 L 5.125 0 L 1.640625 -7.265625 L 1.640625 0 L 1.03125 0 L 1.03125 -8.65625 L 2.5 -8.65625 L 5.65625 -2.0625 L 8.5 -8.65625 L 10.015625 -8.65625 L 10.015625 -2.234375 C 10.015625 -1.421875 10.097656 -0.804688 10.265625 -0.390625 C 10.429688 0.0234375 10.707031 0.25 11.09375 0.28125 Z M 11.09375 0.59375 "/></g></g><g style="fill:#177267;fill-opacity:1;"><g transform="translate(71.186183, 22.524628)"><path style="stroke:none" d="M 8.21875 0.046875 C 7.71875 0.046875 7.253906 -0.0664062 6.828125 -0.296875 C 6.398438 -0.523438 6.050781 -0.976562 5.78125 -1.65625 L 5.453125 -2.421875 L 1.890625 -2.421875 L 0.828125 0 L 0.1875 0 L 3.984375 -8.65625 L 4.46875 -8.65625 L 7.40625 -1.65625 C 7.582031 -1.21875 7.78125 -0.894531 8 -0.6875 C 8.21875 -0.476562 8.484375 -0.351562 8.796875 -0.3125 L 8.796875 -0.015625 C 8.640625 0.0234375 8.445312 0.046875 8.21875 0.046875 Z M 5.203125 -3 L 3.703125 -6.578125 L 2.140625 -3 Z M 5.203125 -3 "/></g></g><g style="fill:#177267;fill-opacity:1;"><g transform="translate(79.604253, 22.524628)"><path style="stroke:none" d="M 1.953125 -6.65625 L 1.953125 0 L 1.359375 0 L 1.359375 -7.09375 C 1.359375 -7.476562 1.265625 -7.78125 1.078125 -8 C 0.898438 -8.21875 0.597656 -8.328125 0.171875 -8.328125 L 0.078125 -8.328125 L 0.078125 -8.65625 L 0.96875 -8.65625 C 1.425781 -8.65625 1.800781 -8.585938 2.09375 -8.453125 C 2.394531 -8.328125 2.648438 -8.132812 2.859375 -7.875 L 7.421875 -2.4375 L 7.421875 -8.65625 L 8.015625 -8.65625 L 8.015625 0.078125 L 7.546875 0.078125 Z M 1.953125 -6.65625 "/></g></g><g style="fill:#177267;fill-opacity:1;"><g transform="translate(88.6386, 22.524628)"><path style="stroke:none" d="M 1.3125 -7.015625 C 1.3125 -7.453125 1.25 -7.78125 1.125 -8 C 1 -8.21875 0.753906 -8.328125 0.390625 -8.328125 L 0.203125 -8.328125 L 0.203125 -8.65625 L 3.71875 -8.65625 C 5.457031 -8.65625 6.773438 -8.28125 7.671875 -7.53125 C 8.578125 -6.78125 9.03125 -5.734375 9.03125 -4.390625 C 9.03125 -3.515625 8.835938 -2.75 8.453125 -2.09375 C 8.078125 -1.4375 7.515625 -0.921875 6.765625 -0.546875 C 6.015625 -0.179688 5.113281 0 4.0625 0 L 1.3125 0 Z M 4.015625 -0.5 C 4.640625 -0.5 5.195312 -0.65625 5.6875 -0.96875 C 6.1875 -1.28125 6.578125 -1.722656 6.859375 -2.296875 C 7.140625 -2.878906 7.28125 -3.554688 7.28125 -4.328125 C 7.28125 -5.085938 7.140625 -5.753906 6.859375 -6.328125 C 6.578125 -6.910156 6.1875 -7.359375 5.6875 -7.671875 C 5.195312 -7.992188 4.628906 -8.15625 3.984375 -8.15625 C 3.648438 -8.15625 3.257812 -8.109375 2.8125 -8.015625 L 2.8125 -0.609375 C 3.070312 -0.554688 3.28125 -0.523438 3.4375 -0.515625 C 3.601562 -0.503906 3.796875 -0.5 4.015625 -0.5 Z M 4.015625 -0.5 "/></g></g><g style="fill:#177267;fill-opacity:1;"><g transform="translate(98.171218, 22.524628)"><path style="stroke:none" d="M 8.21875 0.046875 C 7.71875 0.046875 7.253906 -0.0664062 6.828125 -0.296875 C 6.398438 -0.523438 6.050781 -0.976562 5.78125 -1.65625 L 5.453125 -2.421875 L 1.890625 -2.421875 L 0.828125 0 L 0.1875 0 L 3.984375 -8.65625 L 4.46875 -8.65625 L 7.40625 -1.65625 C 7.582031 -1.21875 7.78125 -0.894531 8 -0.6875 C 8.21875 -0.476562 8.484375 -0.351562 8.796875 -0.3125 L 8.796875 -0.015625 C 8.640625 0.0234375 8.445312 0.046875 8.21875 0.046875 Z M 5.203125 -3 L 3.703125 -6.578125 L 2.140625 -3 Z M 5.203125 -3 "/></g></g><g style="fill:#177267;fill-opacity:1;"><g transform="translate(106.589287, 22.524628)"><path style="stroke:none" d="M 7.265625 0.125 C 6.796875 0.125 6.375 -0.015625 6 -0.296875 C 5.625 -0.578125 5.222656 -1.066406 4.796875 -1.765625 L 3.484375 -3.984375 L 2.8125 -3.984375 L 2.8125 0 L 1.3125 0 L 1.3125 -7.015625 C 1.3125 -7.453125 1.25 -7.78125 1.125 -8 C 1 -8.21875 0.753906 -8.328125 0.390625 -8.328125 L 0.203125 -8.328125 L 0.203125 -8.65625 L 3.734375 -8.65625 C 4.609375 -8.65625 5.398438 -8.488281 6.109375 -8.15625 C 6.816406 -7.832031 7.171875 -7.210938 7.171875 -6.296875 C 7.171875 -5.640625 6.972656 -5.140625 6.578125 -4.796875 C 6.191406 -4.460938 5.679688 -4.21875 5.046875 -4.0625 L 6.4375 -1.765625 C 6.738281 -1.253906 7.023438 -0.890625 7.296875 -0.671875 C 7.566406 -0.460938 7.84375 -0.335938 8.125 -0.296875 L 8.125 0 C 8.039062 0.03125 7.914062 0.0546875 7.75 0.078125 C 7.582031 0.109375 7.421875 0.125 7.265625 0.125 Z M 3.65625 -4.46875 C 3.957031 -4.46875 4.25 -4.53125 4.53125 -4.65625 C 4.820312 -4.78125 5.0625 -4.976562 5.25 -5.25 C 5.445312 -5.53125 5.546875 -5.882812 5.546875 -6.3125 C 5.546875 -6.738281 5.445312 -7.085938 5.25 -7.359375 C 5.0625 -7.640625 4.828125 -7.84375 4.546875 -7.96875 C 4.265625 -8.09375 3.972656 -8.15625 3.671875 -8.15625 C 3.460938 -8.15625 3.175781 -8.125 2.8125 -8.0625 L 2.8125 -4.46875 Z M 3.65625 -4.46875 "/></g></g><g style="fill:#324776;fill-opacity:1;"><g transform="translate(52.216371, 27.324971)"><path style="stroke:none" d="M 0.96875 -0.515625 L 0.96875 0 L 0.578125 0 L 0.578125 -0.5 L -0.015625 -1.59375 L 0.390625 -1.59375 L 0.78125 -0.890625 L 1.15625 -1.59375 L 1.546875 -1.59375 Z M 0.96875 -0.515625 "/></g></g><g style="fill:#324776;fill-opacity:1;"><g transform="translate(54.503324, 27.324971)"><path style="stroke:none" d="M 1.40625 -1.265625 L 0.5625 -1.265625 L 0.5625 -0.953125 L 1.3125 -0.953125 L 1.3125 -0.640625 L 0.5625 -0.640625 L 0.5625 -0.3125 L 1.421875 -0.3125 L 1.421875 0 L 0.15625 0 L 0.15625 -1.59375 L 1.40625 -1.59375 Z M 1.40625 -1.265625 "/></g></g><g style="fill:#324776;fill-opacity:1;"><g transform="translate(56.776666, 27.324971)"><path style="stroke:none" d="M 0.15625 -1.59375 L 0.84375 -1.59375 C 1.09375 -1.59375 1.296875 -1.515625 1.453125 -1.359375 C 1.609375 -1.210938 1.6875 -1.023438 1.6875 -0.796875 C 1.6875 -0.554688 1.601562 -0.363281 1.4375 -0.21875 C 1.28125 -0.0703125 1.078125 0 0.828125 0 L 0.15625 0 Z M 0.5625 -1.265625 L 0.5625 -0.328125 L 0.84375 -0.328125 C 0.96875 -0.328125 1.066406 -0.367188 1.140625 -0.453125 C 1.222656 -0.535156 1.265625 -0.644531 1.265625 -0.78125 C 1.265625 -0.925781 1.222656 -1.039062 1.140625 -1.125 C 1.066406 -1.21875 0.960938 -1.265625 0.828125 -1.265625 Z M 0.5625 -1.265625 "/></g></g><g style="fill:#324776;fill-opacity:1;"><g transform="translate(59.260981, 27.324971)"><path style="stroke:none" d="M 0.203125 -2.078125 C 0.242188 -2.117188 0.296875 -2.140625 0.359375 -2.140625 C 0.421875 -2.140625 0.46875 -2.117188 0.5 -2.078125 C 0.539062 -2.046875 0.5625 -2 0.5625 -1.9375 C 0.5625 -1.875 0.539062 -1.820312 0.5 -1.78125 C 0.46875 -1.75 0.421875 -1.734375 0.359375 -1.734375 C 0.296875 -1.734375 0.242188 -1.75 0.203125 -1.78125 C 0.171875 -1.820312 0.15625 -1.875 0.15625 -1.9375 C 0.15625 -2 0.171875 -2.046875 0.203125 -2.078125 Z M 0.5625 0 L 0.15625 0 L 0.15625 -1.59375 L 0.5625 -1.59375 Z M 0.5625 0 "/></g></g><g style="fill:#324776;fill-opacity:1;"><g transform="translate(60.726732, 27.324971)"><path style="stroke:none" d="M 1.59375 -1.59375 L 1.59375 -0.671875 C 1.59375 -0.453125 1.523438 -0.28125 1.390625 -0.15625 C 1.265625 -0.0390625 1.085938 0.015625 0.859375 0.015625 C 0.640625 0.015625 0.460938 -0.0390625 0.328125 -0.15625 C 0.191406 -0.28125 0.125 -0.453125 0.125 -0.671875 L 0.125 -1.59375 L 0.53125 -1.59375 L 0.53125 -0.671875 C 0.53125 -0.554688 0.5625 -0.46875 0.625 -0.40625 C 0.6875 -0.34375 0.765625 -0.3125 0.859375 -0.3125 C 0.960938 -0.3125 1.039062 -0.34375 1.09375 -0.40625 C 1.15625 -0.46875 1.1875 -0.554688 1.1875 -0.671875 L 1.1875 -1.59375 Z M 1.59375 -1.59375 "/></g></g><g style="fill:#324776;fill-opacity:1;"><g transform="translate(63.190628, 27.324971)"><path style="stroke:none" d="M 0.5625 -0.34375 L 1.234375 -0.34375 L 1.234375 0 L 0.15625 0 L 0.15625 -1.59375 L 0.5625 -1.59375 Z M 0.5625 -0.34375 "/></g></g><g style="fill:#324776;fill-opacity:1;"><g transform="translate(65.20536, 27.324971)"><path style="stroke:none" d="M 0.96875 -0.515625 L 0.96875 0 L 0.578125 0 L 0.578125 -0.5 L -0.015625 -1.59375 L 0.390625 -1.59375 L 0.78125 -0.890625 L 1.15625 -1.59375 L 1.546875 -1.59375 Z M 0.96875 -0.515625 "/></g></g><g style="fill:#324776;fill-opacity:1;"><g transform="translate(67.492314, 27.324971)"><path style="stroke:none" d="M 1.21875 -0.296875 L 0.515625 -0.296875 L 0.40625 0 L -0.015625 0 L 0.671875 -1.59375 L 1.09375 -1.59375 L 1.75 0 L 1.328125 0 Z M 1.09375 -0.59375 L 0.875 -1.1875 L 0.640625 -0.59375 Z M 1.09375 -0.59375 "/></g></g><g style="fill:#324776;fill-opacity:1;"><g transform="translate(69.983433, 27.324971)"><path style="stroke:none" d=""/></g></g><g style="fill:#324776;fill-opacity:1;"><g transform="translate(71.254092, 27.324971)"><path style="stroke:none" d="M 1.40625 -1.265625 L 0.5625 -1.265625 L 0.5625 -0.953125 L 1.3125 -0.953125 L 1.3125 -0.640625 L 0.5625 -0.640625 L 0.5625 -0.3125 L 1.421875 -0.3125 L 1.421875 0 L 0.15625 0 L 0.15625 -1.59375 L 1.40625 -1.59375 Z M 1.40625 -1.265625 "/></g></g><g style="fill:#324776;fill-opacity:1;"><g transform="translate(73.527434, 27.324971)"><path style="stroke:none" d="M 0.71875 -0.578125 L 0.125 -0.578125 L 0.125 -0.8125 L 0.71875 -0.8125 Z M 0.71875 -0.578125 "/></g></g><g style="fill:#324776;fill-opacity:1;"><g transform="translate(75.120221, 27.324971)"><path style="stroke:none" d="M 1.1875 0 L 0.765625 -0.625 L 0.5625 -0.390625 L 0.5625 0 L 0.15625 0 L 0.15625 -1.59375 L 0.5625 -1.59375 L 0.5625 -0.90625 L 1.171875 -1.59375 L 1.640625 -1.59375 L 1.046875 -0.921875 L 1.671875 0 Z M 1.1875 0 "/></g></g><g style="fill:#324776;fill-opacity:1;"><g transform="translate(77.559164, 27.324971)"><path style="stroke:none" d="M 0.515625 -2.046875 C 0.546875 -2.085938 0.585938 -2.109375 0.640625 -2.109375 C 0.691406 -2.109375 0.734375 -2.085938 0.765625 -2.046875 C 0.796875 -2.015625 0.8125 -1.972656 0.8125 -1.921875 C 0.8125 -1.878906 0.796875 -1.835938 0.765625 -1.796875 C 0.734375 -1.765625 0.691406 -1.75 0.640625 -1.75 C 0.585938 -1.75 0.546875 -1.765625 0.515625 -1.796875 C 0.484375 -1.835938 0.46875 -1.878906 0.46875 -1.921875 C 0.46875 -1.972656 0.484375 -2.015625 0.515625 -2.046875 Z M 0.953125 -2.046875 C 0.984375 -2.085938 1.023438 -2.109375 1.078125 -2.109375 C 1.128906 -2.109375 1.171875 -2.085938 1.203125 -2.046875 C 1.234375 -2.015625 1.25 -1.972656 1.25 -1.921875 C 1.25 -1.878906 1.234375 -1.835938 1.203125 -1.796875 C 1.171875 -1.765625 1.128906 -1.75 1.078125 -1.75 C 1.023438 -1.75 0.984375 -1.765625 0.953125 -1.796875 C 0.921875 -1.835938 0.90625 -1.878906 0.90625 -1.921875 C 0.90625 -1.972656 0.921875 -2.015625 0.953125 -2.046875 Z M 1.59375 -1.59375 L 1.59375 -0.671875 C 1.59375 -0.453125 1.523438 -0.28125 1.390625 -0.15625 C 1.265625 -0.0390625 1.085938 0.015625 0.859375 0.015625 C 0.640625 0.015625 0.460938 -0.0390625 0.328125 -0.15625 C 0.191406 -0.28125 0.125 -0.453125 0.125 -0.671875 L 0.125 -1.59375 L 0.53125 -1.59375 L 0.53125 -0.671875 C 0.53125 -0.554688 0.5625 -0.46875 0.625 -0.40625 C 0.6875 -0.34375 0.765625 -0.3125 0.859375 -0.3125 C 0.960938 -0.3125 1.039062 -0.34375 1.09375 -0.40625 C 1.15625 -0.46875 1.1875 -0.554688 1.1875 -0.671875 L 1.1875 -1.59375 Z M 1.59375 -1.59375 "/></g></g><g style="fill:#324776;fill-opacity:1;"><g transform="translate(80.02306, 27.324971)"><path style="stroke:none" d="M 1.375 -1.265625 L 0.890625 -1.265625 L 0.890625 0 L 0.484375 0 L 0.484375 -1.265625 L 0.015625 -1.265625 L 0.015625 -1.59375 L 1.375 -1.59375 Z M 1.375 -1.265625 "/></g></g><g style="fill:#324776;fill-opacity:1;"><g transform="translate(82.153484, 27.324971)"><path style="stroke:none" d="M 0.515625 -2.046875 C 0.546875 -2.085938 0.585938 -2.109375 0.640625 -2.109375 C 0.691406 -2.109375 0.734375 -2.085938 0.765625 -2.046875 C 0.796875 -2.015625 0.8125 -1.972656 0.8125 -1.921875 C 0.8125 -1.878906 0.796875 -1.835938 0.765625 -1.796875 C 0.734375 -1.765625 0.691406 -1.75 0.640625 -1.75 C 0.585938 -1.75 0.546875 -1.765625 0.515625 -1.796875 C 0.484375 -1.835938 0.46875 -1.878906 0.46875 -1.921875 C 0.46875 -1.972656 0.484375 -2.015625 0.515625 -2.046875 Z M 0.953125 -2.046875 C 0.984375 -2.085938 1.023438 -2.109375 1.078125 -2.109375 C 1.128906 -2.109375 1.171875 -2.085938 1.203125 -2.046875 C 1.234375 -2.015625 1.25 -1.972656 1.25 -1.921875 C 1.25 -1.878906 1.234375 -1.835938 1.203125 -1.796875 C 1.171875 -1.765625 1.128906 -1.75 1.078125 -1.75 C 1.023438 -1.75 0.984375 -1.765625 0.953125 -1.796875 C 0.921875 -1.835938 0.90625 -1.878906 0.90625 -1.921875 C 0.90625 -1.972656 0.921875 -2.015625 0.953125 -2.046875 Z M 1.59375 -1.59375 L 1.59375 -0.671875 C 1.59375 -0.453125 1.523438 -0.28125 1.390625 -0.15625 C 1.265625 -0.0390625 1.085938 0.015625 0.859375 0.015625 C 0.640625 0.015625 0.460938 -0.0390625 0.328125 -0.15625 C 0.191406 -0.28125 0.125 -0.453125 0.125 -0.671875 L 0.125 -1.59375 L 0.53125 -1.59375 L 0.53125 -0.671875 C 0.53125 -0.554688 0.5625 -0.46875 0.625 -0.40625 C 0.6875 -0.34375 0.765625 -0.3125 0.859375 -0.3125 C 0.960938 -0.3125 1.039062 -0.34375 1.09375 -0.40625 C 1.15625 -0.46875 1.1875 -0.554688 1.1875 -0.671875 L 1.1875 -1.59375 Z M 1.59375 -1.59375 "/></g></g><g style="fill:#324776;fill-opacity:1;"><g transform="translate(84.61738, 27.324971)"><path style="stroke:none" d="M 0.15625 -1.59375 L 0.84375 -1.59375 C 1.050781 -1.59375 1.207031 -1.539062 1.3125 -1.4375 C 1.425781 -1.34375 1.484375 -1.207031 1.484375 -1.03125 C 1.484375 -0.84375 1.425781 -0.695312 1.3125 -0.59375 C 1.207031 -0.5 1.050781 -0.453125 0.84375 -0.453125 L 0.5625 -0.453125 L 0.5625 0 L 0.15625 0 Z M 0.5625 -1.265625 L 0.5625 -0.765625 L 0.828125 -0.765625 C 0.921875 -0.765625 0.988281 -0.785156 1.03125 -0.828125 C 1.082031 -0.867188 1.109375 -0.929688 1.109375 -1.015625 C 1.109375 -1.097656 1.082031 -1.160156 1.03125 -1.203125 C 0.988281 -1.242188 0.921875 -1.265625 0.828125 -1.265625 Z M 0.5625 -1.265625 "/></g></g><g style="fill:#324776;fill-opacity:1;"><g transform="translate(86.904334, 27.324971)"><path style="stroke:none" d="M 1.625 0 L 1.21875 0 L 1.21875 -0.609375 L 0.5625 -0.609375 L 0.5625 0 L 0.15625 0 L 0.15625 -1.59375 L 0.5625 -1.59375 L 0.5625 -0.9375 L 1.21875 -0.9375 L 1.21875 -1.59375 L 1.625 -1.59375 Z M 1.625 0 "/></g></g><g style="fill:#324776;fill-opacity:1;"><g transform="translate(89.431748, 27.324971)"><path style="stroke:none" d="M 1.21875 -0.296875 L 0.515625 -0.296875 L 0.40625 0 L -0.015625 0 L 0.671875 -1.59375 L 1.09375 -1.59375 L 1.75 0 L 1.328125 0 Z M 1.09375 -0.59375 L 0.875 -1.1875 L 0.640625 -0.59375 Z M 1.09375 -0.59375 "/></g></g><g style="fill:#324776;fill-opacity:1;"><g transform="translate(91.922867, 27.324971)"><path style="stroke:none" d="M 1.625 0 L 1.265625 0 L 0.53125 -0.96875 L 0.53125 0 L 0.15625 0 L 0.15625 -1.59375 L 0.515625 -1.59375 L 1.25 -0.609375 L 1.25 -1.59375 L 1.625 -1.59375 Z M 1.625 0 "/></g></g><g style="fill:#324776;fill-opacity:1;"><g transform="translate(94.450281, 27.324971)"><path style="stroke:none" d="M 1.40625 -1.265625 L 0.5625 -1.265625 L 0.5625 -0.953125 L 1.3125 -0.953125 L 1.3125 -0.640625 L 0.5625 -0.640625 L 0.5625 -0.3125 L 1.421875 -0.3125 L 1.421875 0 L 0.15625 0 L 0.15625 -1.59375 L 1.40625 -1.59375 Z M 1.40625 -1.265625 "/></g></g><g style="fill:#324776;fill-opacity:1;"><g transform="translate(96.72362, 27.324971)"><path style="stroke:none" d="M 0.765625 -1.609375 C 1.003906 -1.609375 1.210938 -1.546875 1.390625 -1.421875 L 1.234375 -1.109375 C 1.148438 -1.160156 1.0625 -1.203125 0.96875 -1.234375 C 0.875 -1.265625 0.796875 -1.28125 0.734375 -1.28125 C 0.617188 -1.28125 0.5625 -1.238281 0.5625 -1.15625 C 0.5625 -1.113281 0.585938 -1.078125 0.640625 -1.046875 C 0.703125 -1.015625 0.773438 -0.988281 0.859375 -0.96875 C 0.941406 -0.945312 1.019531 -0.921875 1.09375 -0.890625 C 1.175781 -0.859375 1.242188 -0.804688 1.296875 -0.734375 C 1.359375 -0.660156 1.390625 -0.570312 1.390625 -0.46875 C 1.390625 -0.320312 1.332031 -0.203125 1.21875 -0.109375 C 1.101562 -0.0234375 0.953125 0.015625 0.765625 0.015625 C 0.628906 0.015625 0.5 -0.00390625 0.375 -0.046875 C 0.25 -0.0976562 0.132812 -0.160156 0.03125 -0.234375 L 0.1875 -0.546875 C 0.269531 -0.484375 0.363281 -0.425781 0.46875 -0.375 C 0.582031 -0.332031 0.679688 -0.3125 0.765625 -0.3125 C 0.828125 -0.3125 0.875 -0.320312 0.90625 -0.34375 C 0.945312 -0.375 0.96875 -0.410156 0.96875 -0.453125 C 0.96875 -0.492188 0.945312 -0.53125 0.90625 -0.5625 C 0.863281 -0.59375 0.8125 -0.613281 0.75 -0.625 C 0.6875 -0.632812 0.617188 -0.648438 0.546875 -0.671875 C 0.484375 -0.703125 0.421875 -0.734375 0.359375 -0.765625 C 0.296875 -0.796875 0.242188 -0.84375 0.203125 -0.90625 C 0.160156 -0.96875 0.140625 -1.039062 0.140625 -1.125 C 0.140625 -1.269531 0.195312 -1.382812 0.3125 -1.46875 C 0.425781 -1.5625 0.578125 -1.609375 0.765625 -1.609375 Z M 0.765625 -1.609375 "/></g></g><g style="fill:#324776;fill-opacity:1;"><g transform="translate(98.928907, 27.324971)"><path style="stroke:none" d="M 0.203125 -2.078125 C 0.242188 -2.117188 0.296875 -2.140625 0.359375 -2.140625 C 0.421875 -2.140625 0.46875 -2.117188 0.5 -2.078125 C 0.539062 -2.046875 0.5625 -2 0.5625 -1.9375 C 0.5625 -1.875 0.539062 -1.820312 0.5 -1.78125 C 0.46875 -1.75 0.421875 -1.734375 0.359375 -1.734375 C 0.296875 -1.734375 0.242188 -1.75 0.203125 -1.78125 C 0.171875 -1.820312 0.15625 -1.875 0.15625 -1.9375 C 0.15625 -2 0.171875 -2.046875 0.203125 -2.078125 Z M 0.5625 0 L 0.15625 0 L 0.15625 -1.59375 L 0.5625 -1.59375 Z M 0.5625 0 "/></g></g></g></svg>