<svg xmlns="http://www.w3.org/2000/svg" xmlns:xlink="http://www.w3.org/1999/xlink" width="500" zoomAndPan="magnify" viewBox="0 0 375 225" height="300" preserveAspectRatio="xMidYMid meet" version="1.2"><defs><clipPath id="548b2b5d5e"><path d="M 81 6 L 293.957031 6 L 293.957031 218.957031 L 81 218.957031 Z M 81 6 "/></clipPath></defs><g id="6a199d908e"><g clip-rule="nonzero" clip-path="url(#548b2b5d5e)"><path style=" stroke:none;fill-rule:evenodd;fill:#177267;fill-opacity:1;" d="M 170.417969 176.410156 L 154.554688 203.875 C 154.289062 204.335938 153.804688 204.621094 153.273438 204.628906 L 135.082031 204.921875 C 134.523438 204.925781 134.011719 204.632812 133.738281 204.144531 L 124.898438 188.246094 C 124.636719 187.78125 124.644531 187.21875 124.90625 186.761719 L 140.765625 159.292969 L 113.296875 175.152344 C 112.839844 175.417969 112.273438 175.421875 111.816406 175.164062 L 95.910156 166.316406 C 95.429688 166.046875 95.128906 165.53125 95.140625 164.980469 L 95.429688 146.78125 C 95.441406 146.253906 95.730469 145.769531 96.1875 145.503906 L 123.652344 129.644531 L 91.9375 129.644531 C 91.410156 129.644531 90.914062 129.367188 90.636719 128.914062 L 81.292969 113.300781 C 81.003906 112.824219 81.003906 112.230469 81.292969 111.753906 L 90.636719 96.144531 C 90.914062 95.6875 91.410156 95.410156 91.9375 95.410156 L 123.660156 95.410156 L 96.195312 79.554688 C 95.738281 79.289062 95.449219 78.804688 95.445312 78.273438 L 95.152344 60.082031 C 95.144531 59.523438 95.4375 59.011719 95.925781 58.738281 L 111.824219 49.898438 C 112.289062 49.636719 112.851562 49.644531 113.308594 49.90625 L 140.789062 65.757812 L 124.929688 38.289062 C 124.667969 37.832031 124.660156 37.269531 124.921875 36.804688 L 133.761719 20.90625 C 134.035156 20.417969 134.546875 20.121094 135.105469 20.128906 L 153.296875 20.421875 C 153.828125 20.429688 154.3125 20.714844 154.578125 21.175781 L 170.417969 48.613281 L 170.417969 16.929688 C 170.417969 16.402344 170.695312 15.910156 171.152344 15.640625 L 186.757812 6.289062 C 187.238281 6.003906 187.828125 6.003906 188.3125 6.289062 L 203.914062 15.640625 C 204.371094 15.910156 204.648438 16.402344 204.648438 16.929688 L 204.648438 48.640625 L 220.507812 21.179688 C 220.769531 20.71875 221.257812 20.433594 221.789062 20.425781 L 239.976562 20.132812 C 240.535156 20.128906 241.046875 20.421875 241.324219 20.910156 L 250.160156 36.808594 C 250.421875 37.273438 250.417969 37.835938 250.152344 38.292969 L 234.292969 65.761719 L 261.757812 49.90625 C 262.214844 49.640625 262.78125 49.636719 263.253906 49.894531 L 279.144531 58.738281 C 279.640625 59.007812 279.929688 59.523438 279.929688 60.078125 L 279.628906 78.273438 C 279.628906 78.804688 279.339844 79.289062 278.882812 79.554688 L 251.417969 95.410156 L 283.132812 95.410156 C 283.660156 95.410156 284.15625 95.6875 284.417969 96.144531 L 293.773438 111.753906 C 294.050781 112.230469 294.050781 112.824219 293.773438 113.300781 L 284.417969 128.914062 C 284.15625 129.367188 283.660156 129.644531 283.132812 129.644531 L 251.425781 129.648438 L 278.890625 145.507812 C 279.351562 145.769531 279.636719 146.257812 279.644531 146.789062 L 279.9375 164.976562 C 279.941406 165.535156 279.648438 166.046875 279.160156 166.324219 L 263.261719 175.160156 C 262.796875 175.421875 262.234375 175.417969 261.777344 175.152344 L 234.324219 159.304688 L 250.175781 186.753906 C 250.441406 187.214844 250.445312 187.777344 250.183594 188.242188 L 241.34375 204.140625 C 241.070312 204.628906 240.558594 204.921875 240 204.917969 L 221.8125 204.621094 C 221.28125 204.617188 220.792969 204.328125 220.527344 203.871094 L 204.648438 176.410156 L 204.648438 208.125 C 204.648438 208.65625 204.371094 209.144531 203.914062 209.417969 L 188.3125 218.765625 C 187.828125 219.050781 187.238281 219.050781 186.757812 218.765625 L 171.152344 209.417969 C 170.695312 209.144531 170.417969 208.65625 170.417969 208.125 Z M 187.527344 146.761719 L 173.429688 171.199219 L 173.429688 207.273438 L 187.527344 215.722656 L 201.640625 207.273438 L 201.640625 171.199219 L 187.554688 146.757812 Z M 145.976562 156.285156 L 145.980469 156.285156 L 127.941406 187.527344 L 135.941406 201.898438 L 152.375 201.632812 L 170.417969 170.378906 L 170.417969 142.175781 Z M 204.660156 138.699219 L 226.09375 151.066406 L 213.726562 129.644531 L 204.648438 129.644531 L 204.648438 170.347656 L 222.710938 201.628906 L 239.144531 201.894531 L 247.140625 187.523438 L 229.113281 156.292969 L 204.660156 142.175781 Z M 231.308594 154.074219 L 262.542969 172.117188 L 276.910156 164.132812 L 276.648438 147.6875 L 245.40625 129.648438 L 217.203125 129.644531 Z M 157.882812 129.644531 L 129.671875 129.644531 L 98.429688 147.683594 L 98.164062 164.125 L 112.539062 172.117188 L 143.777344 154.078125 Z M 185.792969 143.753906 L 181.265625 135.910156 L 173.429688 140.4375 L 173.429688 165.164062 L 185.789062 143.753906 Z M 193.800781 135.910156 L 189.292969 143.746094 L 201.640625 165.132812 L 201.640625 140.4375 Z M 148.992188 151.066406 L 170.417969 138.699219 L 170.417969 129.644531 L 161.066406 129.644531 L 161.359375 129.644531 Z M 166.757812 104.757812 L 168.261719 107.363281 L 159.316406 112.527344 L 156.3125 110.792969 L 165.648438 116.1875 L 164.144531 118.792969 L 156.304688 114.265625 L 134.886719 126.636719 L 159.617188 126.636719 L 157.886719 129.644531 C 157.886719 129.644531 165.648438 116.1875 165.648438 116.1875 L 168.261719 117.691406 L 163.097656 126.636719 L 173.429688 126.636719 L 173.429688 136.964844 L 179.761719 133.304688 L 182.375 131.800781 L 187.527344 140.742188 L 192.695312 131.800781 L 201.640625 136.964844 L 201.640625 126.636719 L 211.96875 126.636719 L 206.804688 117.691406 L 215.75 112.527344 L 206.804688 107.363281 L 211.96875 98.421875 L 201.640625 98.421875 L 201.640625 88.09375 L 195.304688 91.75 L 192.695312 93.257812 L 187.527344 84.3125 L 182.375 93.257812 L 179.761719 91.75 L 173.429688 88.09375 L 173.429688 98.421875 L 163.097656 98.421875 Z M 128.875 98.421875 L 92.792969 98.421875 L 84.339844 112.527344 L 92.792969 126.636719 L 128.867188 126.636719 L 153.300781 112.523438 Z M 221.773438 112.527344 L 221.777344 112.53125 L 246.207031 126.636719 L 282.277344 126.636719 L 290.730469 112.527344 L 282.277344 98.421875 L 246.203125 98.421875 Z M 218.765625 114.269531 L 218.761719 114.265625 L 210.910156 118.792969 L 215.4375 126.636719 L 240.1875 126.636719 Z M 210.910156 106.261719 L 218.761719 110.789062 L 240.183594 98.421875 L 215.445312 98.421875 Z M 159.617188 98.421875 L 134.894531 98.421875 L 156.3125 110.785156 L 164.144531 106.261719 Z M 217.175781 95.410156 L 245.394531 95.410156 L 276.640625 77.371094 L 276.894531 60.933594 L 262.53125 52.9375 L 231.28125 70.976562 Z M 204.648438 95.410156 L 213.699219 95.410156 L 226.070312 73.988281 L 204.648438 86.355469 Z M 161.382812 95.402344 L 170.417969 95.410156 L 170.417969 86.355469 L 149.027344 74.003906 Z M 157.882812 95.410156 L 157.90625 95.40625 L 143.8125 70.996094 L 112.542969 52.941406 L 98.171875 60.9375 L 98.4375 77.375 L 129.679688 95.410156 Z M 229.082031 68.773438 L 229.082031 68.769531 L 247.117188 37.527344 L 239.132812 23.164062 L 222.6875 23.421875 L 189.269531 81.304688 L 187.539062 78.308594 L 187.539062 78.3125 L 194.078125 89.644531 L 193.800781 89.144531 L 204.648438 82.878906 Z M 173.429688 84.617188 L 181.265625 89.144531 L 185.804688 81.28125 L 152.398438 23.417969 L 135.953125 23.160156 L 127.964844 37.523438 L 146.003906 68.765625 L 170.417969 82.878906 L 170.417969 54.664062 L 173.429688 59.878906 Z M 204.648438 82.878906 L 201.640625 84.617188 L 201.640625 59.878906 L 204.648438 54.664062 Z M 201.640625 53.855469 L 201.640625 17.785156 L 187.527344 9.335938 L 173.429688 17.785156 L 173.429688 53.828125 L 187.542969 78.273438 Z M 201.640625 53.855469 "/></g></g></svg>