<svg xmlns="http://www.w3.org/2000/svg" xmlns:xlink="http://www.w3.org/1999/xlink" width="500" zoomAndPan="magnify" viewBox="0 0 375 112.499997" height="150" preserveAspectRatio="xMidYMid meet" version="1.2"><defs/><g id="4b147a8990"><g style="fill:#177267;fill-opacity:1;"><g transform="translate(11.682227, 63.338403)"><path style="stroke:none" d="M 49.21875 2.625 C 45.0625 2.625 42.117188 1.65625 40.390625 -0.28125 C 38.660156 -2.226562 37.796875 -5.4375 37.796875 -9.90625 L 37.796875 -31.28125 L 24.296875 0 L 22.71875 0 L 7.28125 -32.21875 L 7.28125 0 L 4.609375 0 L 4.609375 -38.4375 L 11.0625 -38.4375 L 25.109375 -9.140625 L 37.75 -38.4375 L 44.4375 -38.4375 L 44.4375 -9.90625 C 44.4375 -6.289062 44.804688 -3.5625 45.546875 -1.71875 C 46.285156 0.125 47.507812 1.125 49.21875 1.28125 Z M 49.21875 2.625 "/></g></g><g style="fill:#177267;fill-opacity:1;"><g transform="translate(61.895289, 63.338403)"><path style="stroke:none" d="M 8.390625 -41.46875 C 7.179688 -41.46875 6.226562 -41.863281 5.53125 -42.65625 C 4.832031 -43.457031 4.484375 -44.441406 4.484375 -45.609375 C 4.484375 -46.535156 4.753906 -47.269531 5.296875 -47.8125 C 5.835938 -48.363281 6.554688 -48.640625 7.453125 -48.640625 C 8.660156 -48.640625 9.613281 -48.238281 10.3125 -47.4375 C 11.007812 -46.644531 11.359375 -45.664062 11.359375 -44.5 C 11.359375 -43.570312 11.085938 -42.832031 10.546875 -42.28125 C 10.003906 -41.738281 9.285156 -41.46875 8.390625 -41.46875 Z M 10.078125 0 C 8.679688 0 7.613281 -0.203125 6.875 -0.609375 C 6.132812 -1.015625 5.609375 -1.742188 5.296875 -2.796875 C 4.984375 -3.847656 4.828125 -5.363281 4.828125 -7.34375 L 4.828125 -38.4375 L 11.46875 -38.4375 L 11.46875 -7.34375 C 11.46875 -5.363281 11.738281 -3.894531 12.28125 -2.9375 C 12.832031 -1.988281 13.921875 -1.515625 15.546875 -1.515625 L 16.375 -1.515625 L 16.375 0 Z M 10.078125 0 "/></g></g><g style="fill:#177267;fill-opacity:1;"><g transform="translate(79.137836, 63.338403)"><path style="stroke:none" d="M 5.828125 -31.109375 C 5.828125 -33.085938 5.550781 -34.550781 5 -35.5 C 4.457031 -36.457031 3.375 -36.9375 1.75 -36.9375 L 0.875 -36.9375 L 0.875 -38.4375 L 7.171875 -38.4375 C 8.566406 -38.4375 9.628906 -38.222656 10.359375 -37.796875 C 11.097656 -37.367188 11.625 -36.640625 11.9375 -35.609375 C 12.25 -34.585938 12.40625 -33.085938 12.40625 -31.109375 L 12.40625 -21.140625 L 28.828125 -21.140625 L 28.828125 -38.4375 L 35.46875 -38.4375 L 35.46875 -7.34375 C 35.46875 -5.363281 35.738281 -3.894531 36.28125 -2.9375 C 36.832031 -1.988281 37.921875 -1.515625 39.546875 -1.515625 L 40.375 -1.515625 L 40.375 0 L 34.078125 0 C 32.679688 0 31.613281 -0.203125 30.875 -0.609375 C 30.132812 -1.015625 29.609375 -1.742188 29.296875 -2.796875 C 28.984375 -3.847656 28.828125 -5.363281 28.828125 -7.34375 L 28.828125 -18.640625 L 12.40625 -18.640625 L 12.40625 0 L 5.828125 0 Z M 5.828125 -31.109375 "/></g></g><g style="fill:#177267;fill-opacity:1;"><g transform="translate(120.438375, 63.338403)"><path style="stroke:none" d="M 49.21875 2.625 C 45.0625 2.625 42.117188 1.65625 40.390625 -0.28125 C 38.660156 -2.226562 37.796875 -5.4375 37.796875 -9.90625 L 37.796875 -31.28125 L 24.296875 0 L 22.71875 0 L 7.28125 -32.21875 L 7.28125 0 L 4.609375 0 L 4.609375 -38.4375 L 11.0625 -38.4375 L 25.109375 -9.140625 L 37.75 -38.4375 L 44.4375 -38.4375 L 44.4375 -9.90625 C 44.4375 -6.289062 44.804688 -3.5625 45.546875 -1.71875 C 46.285156 0.125 47.507812 1.125 49.21875 1.28125 Z M 49.21875 2.625 "/></g></g><g style="fill:#177267;fill-opacity:1;"><g transform="translate(170.651437, 63.338403)"><path style="stroke:none" d="M 36.46875 0.234375 C 34.25 0.234375 32.1875 -0.28125 30.28125 -1.3125 C 28.382812 -2.34375 26.832031 -4.351562 25.625 -7.34375 L 24.234375 -10.78125 L 8.390625 -10.78125 L 3.671875 0 L 0.8125 0 L 17.65625 -38.4375 L 19.859375 -38.4375 L 32.859375 -7.34375 C 33.671875 -5.394531 34.550781 -3.953125 35.5 -3.015625 C 36.457031 -2.085938 37.632812 -1.546875 39.03125 -1.390625 L 39.03125 -0.0625 C 38.332031 0.132812 37.476562 0.234375 36.46875 0.234375 Z M 23.0625 -13.28125 L 16.421875 -29.1875 L 9.5 -13.28125 Z M 23.0625 -13.28125 "/></g></g><g style="fill:#177267;fill-opacity:1;"><g transform="translate(208.049111, 63.338403)"><path style="stroke:none" d="M 8.671875 -29.53125 L 8.671875 0 L 6 0 L 6 -31.453125 C 6 -33.203125 5.597656 -34.550781 4.796875 -35.5 C 4.003906 -36.457031 2.65625 -36.9375 0.75 -36.9375 L 0.34375 -36.9375 L 0.34375 -38.4375 L 4.3125 -38.4375 C 6.332031 -38.4375 8 -38.144531 9.3125 -37.5625 C 10.632812 -36.988281 11.765625 -36.117188 12.703125 -34.953125 L 32.90625 -10.828125 L 32.90625 -38.4375 L 35.59375 -38.4375 L 35.59375 0.34375 L 33.5 0.34375 Z M 8.671875 -29.53125 "/></g></g><g style="fill:#177267;fill-opacity:1;"><g transform="translate(248.184617, 63.338403)"><path style="stroke:none" d="M 5.828125 -31.109375 C 5.828125 -33.085938 5.550781 -34.550781 5 -35.5 C 4.457031 -36.457031 3.375 -36.9375 1.75 -36.9375 L 0.875 -36.9375 L 0.875 -38.4375 L 16.484375 -38.4375 C 24.210938 -38.4375 30.078125 -36.765625 34.078125 -33.421875 C 38.078125 -30.085938 40.078125 -25.429688 40.078125 -19.453125 C 40.078125 -15.609375 39.234375 -12.21875 37.546875 -9.28125 C 35.859375 -6.351562 33.351562 -4.070312 30.03125 -2.4375 C 26.707031 -0.8125 22.695312 0 18 0 L 5.828125 0 Z M 17.828125 -2.21875 C 20.578125 -2.21875 23.054688 -2.90625 25.265625 -4.28125 C 27.484375 -5.65625 29.210938 -7.632812 30.453125 -10.21875 C 31.703125 -12.800781 32.328125 -15.800781 32.328125 -19.21875 C 32.328125 -22.601562 31.703125 -25.578125 30.453125 -28.140625 C 29.210938 -30.703125 27.484375 -32.691406 25.265625 -34.109375 C 23.054688 -35.523438 20.535156 -36.234375 17.703125 -36.234375 C 16.234375 -36.234375 14.488281 -36.019531 12.46875 -35.59375 L 12.46875 -2.734375 C 13.632812 -2.503906 14.578125 -2.359375 15.296875 -2.296875 C 16.015625 -2.242188 16.859375 -2.21875 17.828125 -2.21875 Z M 17.828125 -2.21875 "/></g></g><g style="fill:#177267;fill-opacity:1;"><g transform="translate(290.533694, 63.338403)"><path style="stroke:none" d="M 36.46875 0.234375 C 34.25 0.234375 32.1875 -0.28125 30.28125 -1.3125 C 28.382812 -2.34375 26.832031 -4.351562 25.625 -7.34375 L 24.234375 -10.78125 L 8.390625 -10.78125 L 3.671875 0 L 0.8125 0 L 17.65625 -38.4375 L 19.859375 -38.4375 L 32.859375 -7.34375 C 33.671875 -5.394531 34.550781 -3.953125 35.5 -3.015625 C 36.457031 -2.085938 37.632812 -1.546875 39.03125 -1.390625 L 39.03125 -0.0625 C 38.332031 0.132812 37.476562 0.234375 36.46875 0.234375 Z M 23.0625 -13.28125 L 16.421875 -29.1875 L 9.5 -13.28125 Z M 23.0625 -13.28125 "/></g></g><g style="fill:#177267;fill-opacity:1;"><g transform="translate(327.931387, 63.338403)"><path style="stroke:none" d="M 32.21875 0.578125 C 30.15625 0.578125 28.285156 -0.0507812 26.609375 -1.3125 C 24.941406 -2.570312 23.175781 -4.753906 21.3125 -7.859375 L 15.5 -17.65625 L 12.46875 -17.65625 L 12.46875 0 L 5.828125 0 L 5.828125 -31.109375 C 5.828125 -33.085938 5.550781 -34.550781 5 -35.5 C 4.457031 -36.457031 3.375 -36.9375 1.75 -36.9375 L 0.875 -36.9375 L 0.875 -38.4375 L 16.59375 -38.4375 C 20.445312 -38.4375 23.953125 -37.707031 27.109375 -36.25 C 30.273438 -34.800781 31.859375 -32.035156 31.859375 -27.953125 C 31.859375 -25.046875 30.984375 -22.832031 29.234375 -21.3125 C 27.492188 -19.800781 25.222656 -18.71875 22.421875 -18.0625 L 28.546875 -7.859375 C 29.898438 -5.566406 31.175781 -3.945312 32.375 -3 C 33.582031 -2.050781 34.8125 -1.5 36.0625 -1.34375 L 36.0625 0 C 35.707031 0.15625 35.160156 0.289062 34.421875 0.40625 C 33.679688 0.519531 32.945312 0.578125 32.21875 0.578125 Z M 16.25 -19.859375 C 17.570312 -19.859375 18.875 -20.128906 20.15625 -20.671875 C 21.4375 -21.222656 22.503906 -22.109375 23.359375 -23.328125 C 24.210938 -24.546875 24.640625 -26.109375 24.640625 -28.015625 C 24.640625 -29.921875 24.210938 -31.484375 23.359375 -32.703125 C 22.503906 -33.929688 21.445312 -34.828125 20.1875 -35.390625 C 18.925781 -35.953125 17.632812 -36.234375 16.3125 -36.234375 C 15.375 -36.234375 14.09375 -36.078125 12.46875 -35.765625 L 12.46875 -19.859375 Z M 16.25 -19.859375 "/></g></g><g style="fill:#ffc574;fill-opacity:1;"><g transform="translate(67.579216, 88.558464)"><path style="stroke:none" d="M 7.96875 -5.65625 L 11.109375 -5.65625 L 11.109375 -1.125 C 10.472656 -0.675781 9.738281 -0.332031 8.90625 -0.09375 C 8.070312 0.132812 7.25 0.25 6.4375 0.25 C 5.289062 0.25 4.265625 0.0078125 3.359375 -0.46875 C 2.453125 -0.945312 1.738281 -1.609375 1.21875 -2.453125 C 0.695312 -3.304688 0.4375 -4.273438 0.4375 -5.359375 C 0.4375 -6.441406 0.695312 -7.410156 1.21875 -8.265625 C 1.738281 -9.117188 2.457031 -9.78125 3.375 -10.25 C 4.300781 -10.726562 5.347656 -10.96875 6.515625 -10.96875 C 7.566406 -10.96875 8.507812 -10.789062 9.34375 -10.4375 C 10.175781 -10.09375 10.867188 -9.582031 11.421875 -8.90625 L 9.109375 -6.859375 C 8.429688 -7.648438 7.628906 -8.046875 6.703125 -8.046875 C 5.898438 -8.046875 5.265625 -7.804688 4.796875 -7.328125 C 4.328125 -6.847656 4.09375 -6.191406 4.09375 -5.359375 C 4.09375 -4.554688 4.320312 -3.910156 4.78125 -3.421875 C 5.25 -2.929688 5.875 -2.6875 6.65625 -2.6875 C 7.113281 -2.6875 7.550781 -2.769531 7.96875 -2.9375 Z M 7.96875 -5.65625 "/></g></g><g style="fill:#ffc574;fill-opacity:1;"><g transform="translate(84.39436, 88.558464)"><path style="stroke:none" d="M 6.5 0.25 C 5.34375 0.25 4.304688 0.0078125 3.390625 -0.46875 C 2.472656 -0.957031 1.75 -1.625 1.21875 -2.46875 C 0.695312 -3.320312 0.4375 -4.285156 0.4375 -5.359375 C 0.4375 -6.429688 0.695312 -7.394531 1.21875 -8.25 C 1.75 -9.101562 2.472656 -9.769531 3.390625 -10.25 C 4.304688 -10.726562 5.34375 -10.96875 6.5 -10.96875 C 7.65625 -10.96875 8.691406 -10.726562 9.609375 -10.25 C 10.523438 -9.769531 11.242188 -9.101562 11.765625 -8.25 C 12.285156 -7.394531 12.546875 -6.429688 12.546875 -5.359375 C 12.546875 -4.285156 12.285156 -3.320312 11.765625 -2.46875 C 11.242188 -1.625 10.523438 -0.957031 9.609375 -0.46875 C 8.691406 0.0078125 7.65625 0.25 6.5 0.25 Z M 6.5 -2.6875 C 6.945312 -2.6875 7.351562 -2.796875 7.71875 -3.015625 C 8.082031 -3.234375 8.367188 -3.539062 8.578125 -3.9375 C 8.796875 -4.34375 8.90625 -4.816406 8.90625 -5.359375 C 8.90625 -5.898438 8.796875 -6.375 8.578125 -6.78125 C 8.367188 -7.1875 8.082031 -7.5 7.71875 -7.71875 C 7.351562 -7.9375 6.945312 -8.046875 6.5 -8.046875 C 6.050781 -8.046875 5.644531 -7.9375 5.28125 -7.71875 C 4.914062 -7.5 4.625 -7.1875 4.40625 -6.78125 C 4.195312 -6.375 4.09375 -5.898438 4.09375 -5.359375 C 4.09375 -4.816406 4.195312 -4.34375 4.40625 -3.9375 C 4.625 -3.539062 4.914062 -3.234375 5.28125 -3.015625 C 5.644531 -2.796875 6.050781 -2.6875 6.5 -2.6875 Z M 4.796875 -11.484375 C 4.398438 -11.484375 4.070312 -11.609375 3.8125 -11.859375 C 3.550781 -12.109375 3.421875 -12.429688 3.421875 -12.828125 C 3.421875 -13.222656 3.550781 -13.546875 3.8125 -13.796875 C 4.070312 -14.054688 4.398438 -14.1875 4.796875 -14.1875 C 5.191406 -14.1875 5.519531 -14.054688 5.78125 -13.796875 C 6.039062 -13.546875 6.171875 -13.222656 6.171875 -12.828125 C 6.171875 -12.429688 6.039062 -12.109375 5.78125 -11.859375 C 5.519531 -11.609375 5.191406 -11.484375 4.796875 -11.484375 Z M 8.203125 -11.484375 C 7.796875 -11.484375 7.460938 -11.609375 7.203125 -11.859375 C 6.941406 -12.109375 6.8125 -12.429688 6.8125 -12.828125 C 6.8125 -13.222656 6.941406 -13.546875 7.203125 -13.796875 C 7.460938 -14.054688 7.796875 -14.1875 8.203125 -14.1875 C 8.597656 -14.1875 8.925781 -14.054688 9.1875 -13.796875 C 9.445312 -13.546875 9.578125 -13.222656 9.578125 -12.828125 C 9.578125 -12.429688 9.445312 -12.109375 9.1875 -11.859375 C 8.925781 -11.609375 8.597656 -11.484375 8.203125 -11.484375 Z M 8.203125 -11.484375 "/></g></g><g style="fill:#ffc574;fill-opacity:1;"><g transform="translate(102.420316, 88.558464)"><path style="stroke:none" d="M 11.453125 -10.734375 L 11.453125 0 L 8.46875 0 L 4.40625 -4.875 L 4.40625 0 L 0.875 0 L 0.875 -10.734375 L 3.84375 -10.734375 L 7.921875 -5.859375 L 7.921875 -10.734375 Z M 11.453125 -10.734375 "/></g></g><g style="fill:#ffc574;fill-opacity:1;"><g transform="translate(119.771898, 88.558464)"><path style="stroke:none" d="M 6.015625 0.25 C 4.367188 0.25 3.082031 -0.191406 2.15625 -1.078125 C 1.238281 -1.972656 0.78125 -3.222656 0.78125 -4.828125 L 0.78125 -10.734375 L 4.40625 -10.734375 L 4.40625 -4.9375 C 4.40625 -4.144531 4.546875 -3.570312 4.828125 -3.21875 C 5.109375 -2.863281 5.515625 -2.6875 6.046875 -2.6875 C 6.578125 -2.6875 6.976562 -2.863281 7.25 -3.21875 C 7.53125 -3.570312 7.671875 -4.144531 7.671875 -4.9375 L 7.671875 -10.734375 L 11.234375 -10.734375 L 11.234375 -4.828125 C 11.234375 -3.222656 10.769531 -1.972656 9.84375 -1.078125 C 8.925781 -0.191406 7.648438 0.25 6.015625 0.25 Z M 4.34375 -11.484375 C 3.945312 -11.484375 3.617188 -11.609375 3.359375 -11.859375 C 3.097656 -12.109375 2.96875 -12.429688 2.96875 -12.828125 C 2.96875 -13.222656 3.097656 -13.546875 3.359375 -13.796875 C 3.617188 -14.054688 3.945312 -14.1875 4.34375 -14.1875 C 4.738281 -14.1875 5.066406 -14.054688 5.328125 -13.796875 C 5.585938 -13.546875 5.71875 -13.222656 5.71875 -12.828125 C 5.71875 -12.429688 5.585938 -12.109375 5.328125 -11.859375 C 5.066406 -11.609375 4.738281 -11.484375 4.34375 -11.484375 Z M 7.75 -11.484375 C 7.34375 -11.484375 7.007812 -11.609375 6.75 -11.859375 C 6.488281 -12.109375 6.359375 -12.429688 6.359375 -12.828125 C 6.359375 -13.222656 6.488281 -13.546875 6.75 -13.796875 C 7.007812 -14.054688 7.34375 -14.1875 7.75 -14.1875 C 8.144531 -14.1875 8.472656 -14.054688 8.734375 -13.796875 C 8.992188 -13.546875 9.125 -13.222656 9.125 -12.828125 C 9.125 -12.429688 8.992188 -12.109375 8.734375 -11.859375 C 8.472656 -11.609375 8.144531 -11.484375 7.75 -11.484375 Z M 7.75 -11.484375 "/></g></g><g style="fill:#ffc574;fill-opacity:1;"><g transform="translate(136.816957, 88.558464)"><path style="stroke:none" d="M 0.875 -10.734375 L 4.484375 -10.734375 L 4.484375 -2.8125 L 9.328125 -2.8125 L 9.328125 0 L 0.875 0 Z M 0.875 -10.734375 "/></g></g><g style="fill:#ffc574;fill-opacity:1;"><g transform="translate(151.302476, 88.558464)"><path style="stroke:none" d=""/></g></g><g style="fill:#ffc574;fill-opacity:1;"><g transform="translate(160.929501, 88.558464)"><path style="stroke:none" d="M 5.46875 -2.703125 L 4.484375 -2.703125 L 4.484375 0 L 0.875 0 L 0.875 -10.734375 L 6.046875 -10.734375 C 7.035156 -10.734375 7.894531 -10.566406 8.625 -10.234375 C 9.363281 -9.910156 9.929688 -9.441406 10.328125 -8.828125 C 10.722656 -8.210938 10.921875 -7.5 10.921875 -6.6875 C 10.921875 -5.914062 10.75 -5.242188 10.40625 -4.671875 C 10.0625 -4.097656 9.5625 -3.644531 8.90625 -3.3125 L 11.15625 0 L 7.296875 0 Z M 7.28125 -6.6875 C 7.28125 -7.082031 7.15625 -7.390625 6.90625 -7.609375 C 6.664062 -7.828125 6.300781 -7.9375 5.8125 -7.9375 L 4.484375 -7.9375 L 4.484375 -5.421875 L 5.8125 -5.421875 C 6.300781 -5.421875 6.664062 -5.53125 6.90625 -5.75 C 7.15625 -5.96875 7.28125 -6.28125 7.28125 -6.6875 Z M 7.28125 -6.6875 "/></g></g><g style="fill:#ffc574;fill-opacity:1;"><g transform="translate(177.376814, 88.558464)"><path style="stroke:none" d="M 9.796875 -2.734375 L 9.796875 0 L 0.875 0 L 0.875 -10.734375 L 9.59375 -10.734375 L 9.59375 -8 L 4.4375 -8 L 4.4375 -6.75 L 8.96875 -6.75 L 8.96875 -4.140625 L 4.4375 -4.140625 L 4.4375 -2.734375 Z M 9.796875 -2.734375 "/></g></g><g style="fill:#ffc574;fill-opacity:1;"><g transform="translate(192.720613, 88.558464)"><path style="stroke:none" d="M 11.453125 -10.734375 L 11.453125 0 L 7.828125 0 L 7.828125 -3.953125 L 4.484375 -3.953125 L 4.484375 0 L 0.875 0 L 0.875 -10.734375 L 4.484375 -10.734375 L 4.484375 -6.921875 L 7.828125 -6.921875 L 7.828125 -10.734375 Z M 11.453125 -10.734375 "/></g></g><g style="fill:#ffc574;fill-opacity:1;"><g transform="translate(210.072196, 88.558464)"><path style="stroke:none" d="M 9.453125 -5.609375 C 10.085938 -5.367188 10.578125 -5.023438 10.921875 -4.578125 C 11.273438 -4.128906 11.453125 -3.585938 11.453125 -2.953125 C 11.453125 -2.015625 11.0625 -1.285156 10.28125 -0.765625 C 9.507812 -0.253906 8.382812 0 6.90625 0 L 0.875 0 L 0.875 -10.734375 L 6.609375 -10.734375 C 8.035156 -10.734375 9.113281 -10.476562 9.84375 -9.96875 C 10.570312 -9.457031 10.9375 -8.773438 10.9375 -7.921875 C 10.9375 -7.421875 10.8125 -6.972656 10.5625 -6.578125 C 10.3125 -6.179688 9.941406 -5.859375 9.453125 -5.609375 Z M 4.4375 -8.203125 L 4.4375 -6.609375 L 6.109375 -6.609375 C 6.898438 -6.609375 7.296875 -6.875 7.296875 -7.40625 C 7.296875 -7.9375 6.898438 -8.203125 6.109375 -8.203125 Z M 6.609375 -2.53125 C 7.398438 -2.53125 7.796875 -2.8125 7.796875 -3.375 C 7.796875 -3.9375 7.398438 -4.21875 6.609375 -4.21875 L 4.4375 -4.21875 L 4.4375 -2.53125 Z M 6.609375 -2.53125 "/></g></g><g style="fill:#ffc574;fill-opacity:1;"><g transform="translate(226.948648, 88.558464)"><path style="stroke:none" d="M 9.796875 -2.734375 L 9.796875 0 L 0.875 0 L 0.875 -10.734375 L 9.59375 -10.734375 L 9.59375 -8 L 4.4375 -8 L 4.4375 -6.75 L 8.96875 -6.75 L 8.96875 -4.140625 L 4.4375 -4.140625 L 4.4375 -2.734375 Z M 9.796875 -2.734375 "/></g></g><g style="fill:#ffc574;fill-opacity:1;"><g transform="translate(242.292447, 88.558464)"><path style="stroke:none" d="M 5.46875 -2.703125 L 4.484375 -2.703125 L 4.484375 0 L 0.875 0 L 0.875 -10.734375 L 6.046875 -10.734375 C 7.035156 -10.734375 7.894531 -10.566406 8.625 -10.234375 C 9.363281 -9.910156 9.929688 -9.441406 10.328125 -8.828125 C 10.722656 -8.210938 10.921875 -7.5 10.921875 -6.6875 C 10.921875 -5.914062 10.75 -5.242188 10.40625 -4.671875 C 10.0625 -4.097656 9.5625 -3.644531 8.90625 -3.3125 L 11.15625 0 L 7.296875 0 Z M 7.28125 -6.6875 C 7.28125 -7.082031 7.15625 -7.390625 6.90625 -7.609375 C 6.664062 -7.828125 6.300781 -7.9375 5.8125 -7.9375 L 4.484375 -7.9375 L 4.484375 -5.421875 L 5.8125 -5.421875 C 6.300781 -5.421875 6.664062 -5.53125 6.90625 -5.75 C 7.15625 -5.96875 7.28125 -6.28125 7.28125 -6.6875 Z M 7.28125 -6.6875 "/></g></g><g style="fill:#ffc574;fill-opacity:1;"><g transform="translate(258.73976, 88.558464)"><path style="stroke:none" d="M 0.875 -10.734375 L 4.484375 -10.734375 L 4.484375 0 L 0.875 0 Z M 2.6875 -11.453125 C 2.175781 -11.453125 1.753906 -11.613281 1.421875 -11.9375 C 1.097656 -12.269531 0.9375 -12.691406 0.9375 -13.203125 C 0.9375 -13.710938 1.097656 -14.128906 1.421875 -14.453125 C 1.753906 -14.773438 2.175781 -14.9375 2.6875 -14.9375 C 3.195312 -14.9375 3.613281 -14.773438 3.9375 -14.453125 C 4.269531 -14.128906 4.4375 -13.710938 4.4375 -13.203125 C 4.4375 -12.691406 4.269531 -12.269531 3.9375 -11.9375 C 3.613281 -11.613281 3.195312 -11.453125 2.6875 -11.453125 Z M 2.6875 -11.453125 "/></g></g><g style="fill:#ffc574;fill-opacity:1;"><g transform="translate(269.133103, 88.558464)"><path style="stroke:none" d="M 11.453125 -10.734375 L 11.453125 0 L 8.46875 0 L 4.40625 -4.875 L 4.40625 0 L 0.875 0 L 0.875 -10.734375 L 3.84375 -10.734375 L 7.921875 -5.859375 L 7.921875 -10.734375 Z M 11.453125 -10.734375 "/></g></g><g style="fill:#ffc574;fill-opacity:1;"><g transform="translate(286.484685, 88.558464)"><path style="stroke:none" d="M 0.875 -10.734375 L 4.484375 -10.734375 L 4.484375 0 L 0.875 0 Z M 2.6875 -11.453125 C 2.175781 -11.453125 1.753906 -11.613281 1.421875 -11.9375 C 1.097656 -12.269531 0.9375 -12.691406 0.9375 -13.203125 C 0.9375 -13.710938 1.097656 -14.128906 1.421875 -14.453125 C 1.753906 -14.773438 2.175781 -14.9375 2.6875 -14.9375 C 3.195312 -14.9375 3.613281 -14.773438 3.9375 -14.453125 C 4.269531 -14.128906 4.4375 -13.710938 4.4375 -13.203125 C 4.4375 -12.691406 4.269531 -12.269531 3.9375 -11.9375 C 3.613281 -11.613281 3.195312 -11.453125 2.6875 -11.453125 Z M 2.6875 -11.453125 "/></g></g><g style="fill:#ffc574;fill-opacity:1;"><g transform="translate(296.878029, 88.558464)"><path style="stroke:none" d="M 10.34375 -2.8125 L 10.34375 0 L 0.484375 0 L 0.484375 -2.21875 L 5.390625 -7.921875 L 0.640625 -7.921875 L 0.640625 -10.734375 L 10.09375 -10.734375 L 10.09375 -8.5 L 5.203125 -2.8125 Z M 10.34375 -2.8125 "/></g></g></g></svg>