<svg xmlns="http://www.w3.org/2000/svg" xmlns:xlink="http://www.w3.org/1999/xlink" width="500" zoomAndPan="magnify" viewBox="0 0 375 225" height="300" preserveAspectRatio="xMidYMid meet" version="1.2"><defs><clipPath id="09a2bd296e"><path d="M 115.34375 4.5625 L 256.34375 4.5625 L 256.34375 145.5625 L 115.34375 145.5625 Z M 115.34375 4.5625 "/></clipPath></defs><g id="c0b3974a2f"><g clip-rule="nonzero" clip-path="url(#09a2bd296e)"><path style=" stroke:none;fill-rule:evenodd;fill:#177267;fill-opacity:1;" d="M 174.542969 117.351562 L 164.042969 135.527344 C 163.871094 135.828125 163.546875 136.019531 163.195312 136.023438 L 151.160156 136.21875 C 150.789062 136.222656 150.453125 136.027344 150.269531 135.703125 L 144.421875 125.183594 C 144.25 124.875 144.253906 124.503906 144.429688 124.199219 L 154.921875 106.027344 L 136.746094 116.519531 C 136.441406 116.695312 136.070312 116.699219 135.765625 116.527344 L 125.242188 110.671875 C 124.921875 110.496094 124.722656 110.152344 124.730469 109.789062 L 124.921875 97.746094 C 124.929688 97.398438 125.121094 97.074219 125.425781 96.902344 L 143.597656 86.410156 L 122.613281 86.410156 C 122.261719 86.410156 121.933594 86.222656 121.75 85.925781 L 115.570312 75.59375 C 115.378906 75.277344 115.378906 74.886719 115.570312 74.570312 L 121.75 64.238281 C 121.933594 63.9375 122.261719 63.753906 122.613281 63.753906 L 143.601562 63.753906 L 125.429688 53.261719 C 125.125 53.085938 124.9375 52.765625 124.933594 52.414062 L 124.738281 40.378906 C 124.734375 40.007812 124.929688 39.671875 125.25 39.488281 L 135.769531 33.640625 C 136.078125 33.46875 136.449219 33.46875 136.753906 33.644531 L 154.9375 44.132812 L 144.441406 25.957031 C 144.269531 25.65625 144.265625 25.28125 144.4375 24.976562 L 150.285156 14.457031 C 150.46875 14.132812 150.804688 13.9375 151.175781 13.941406 L 163.210938 14.136719 C 163.5625 14.140625 163.882812 14.328125 164.058594 14.632812 L 174.542969 32.789062 L 174.542969 11.824219 C 174.542969 11.472656 174.726562 11.148438 175.027344 10.96875 L 185.351562 4.785156 C 185.671875 4.59375 186.0625 4.59375 186.382812 4.785156 L 196.707031 10.96875 C 197.007812 11.148438 197.191406 11.472656 197.191406 11.824219 L 197.191406 32.808594 L 207.683594 14.636719 C 207.859375 14.332031 208.179688 14.144531 208.535156 14.140625 L 220.566406 13.945312 C 220.9375 13.941406 221.277344 14.136719 221.457031 14.457031 L 227.308594 24.976562 C 227.480469 25.285156 227.476562 25.65625 227.300781 25.960938 L 216.808594 44.136719 L 234.980469 33.644531 C 235.285156 33.46875 235.660156 33.464844 235.96875 33.636719 L 246.488281 39.488281 C 246.8125 39.667969 247.003906 40.007812 247.003906 40.375 L 246.804688 52.414062 C 246.804688 52.765625 246.613281 53.085938 246.3125 53.261719 L 228.136719 63.753906 L 249.125 63.753906 C 249.472656 63.753906 249.800781 63.9375 249.976562 64.238281 L 256.167969 74.570312 C 256.351562 74.886719 256.351562 75.277344 256.167969 75.59375 L 249.976562 85.925781 C 249.800781 86.222656 249.472656 86.410156 249.125 86.410156 L 228.144531 86.410156 L 246.316406 96.902344 C 246.621094 97.078125 246.8125 97.398438 246.816406 97.75 L 247.011719 109.785156 C 247.015625 110.15625 246.820312 110.496094 246.496094 110.675781 L 235.976562 116.527344 C 235.667969 116.699219 235.296875 116.695312 234.992188 116.519531 L 216.828125 106.03125 L 227.316406 124.199219 C 227.492188 124.5 227.496094 124.875 227.324219 125.179688 L 221.472656 135.699219 C 221.292969 136.023438 220.953125 136.21875 220.582031 136.214844 L 208.546875 136.019531 C 208.195312 136.015625 207.875 135.828125 207.699219 135.523438 L 197.191406 117.351562 L 197.191406 138.339844 C 197.191406 138.6875 197.007812 139.011719 196.707031 139.195312 L 186.382812 145.378906 C 186.0625 145.566406 185.671875 145.566406 185.351562 145.378906 L 175.027344 139.195312 C 174.726562 139.011719 174.542969 138.6875 174.542969 138.339844 Z M 185.863281 97.734375 L 176.535156 113.902344 L 176.535156 137.773438 L 185.863281 143.363281 L 195.199219 137.773438 L 195.199219 113.902344 L 185.878906 97.730469 Z M 158.367188 104.035156 L 158.371094 104.035156 L 146.4375 124.707031 L 151.726562 134.21875 L 162.601562 134.042969 L 174.542969 113.359375 L 174.542969 94.699219 Z M 197.199219 92.398438 L 211.382812 100.582031 L 203.199219 86.410156 L 197.191406 86.410156 L 197.191406 113.339844 L 209.144531 134.039062 L 220.015625 134.214844 L 225.308594 124.703125 L 213.378906 104.039062 L 197.199219 94.699219 Z M 214.832031 102.574219 L 235.5 114.511719 L 245.007812 109.226562 L 244.832031 98.347656 L 224.160156 86.410156 L 205.5 86.410156 Z M 166.246094 86.410156 L 147.582031 86.410156 L 126.90625 98.34375 L 126.730469 109.222656 L 136.242188 114.511719 L 156.914062 102.574219 Z M 184.714844 95.742188 L 181.71875 90.554688 L 176.535156 93.550781 L 176.535156 109.910156 Z M 190.015625 90.554688 L 187.03125 95.738281 L 195.199219 109.890625 L 195.199219 93.550781 Z M 160.363281 100.582031 L 174.542969 92.398438 L 174.542969 86.410156 L 168.351562 86.410156 L 168.546875 86.410156 Z M 172.121094 69.941406 L 173.117188 71.664062 L 167.195312 75.082031 L 165.207031 73.933594 L 171.386719 77.503906 L 170.390625 79.226562 L 165.203125 76.230469 L 151.03125 84.417969 L 167.394531 84.417969 L 166.25 86.410156 C 166.25 86.410156 171.386719 77.503906 171.386719 77.503906 L 173.117188 78.5 L 169.699219 84.417969 L 176.535156 84.417969 L 176.535156 91.25 L 180.722656 88.828125 L 182.453125 87.832031 L 185.863281 93.75 L 189.28125 87.832031 L 195.199219 91.25 L 195.199219 84.417969 L 202.035156 84.417969 L 198.617188 78.5 L 204.539062 75.082031 L 198.617188 71.664062 L 202.035156 65.746094 L 195.199219 65.746094 L 195.199219 58.914062 L 191.011719 61.332031 L 189.28125 62.328125 L 185.863281 56.414062 L 182.453125 62.328125 L 180.722656 61.332031 L 176.535156 58.914062 L 176.535156 65.746094 L 169.699219 65.746094 Z M 147.050781 65.746094 L 123.175781 65.746094 L 117.585938 75.082031 L 123.175781 84.417969 L 147.046875 84.417969 L 163.214844 75.078125 Z M 208.523438 75.082031 L 208.527344 75.082031 L 224.691406 84.417969 L 248.558594 84.417969 L 254.152344 75.082031 L 248.558594 65.746094 L 224.6875 65.746094 Z M 206.535156 76.234375 L 206.53125 76.230469 L 201.335938 79.226562 L 204.332031 84.417969 L 220.707031 84.417969 Z M 201.335938 70.9375 L 206.53125 73.933594 L 220.703125 65.746094 L 204.335938 65.746094 Z M 167.394531 65.746094 L 151.035156 65.746094 L 165.207031 73.929688 L 170.390625 70.9375 Z M 205.480469 63.753906 L 224.152344 63.753906 L 244.828125 51.820312 L 244.996094 40.941406 L 235.492188 35.652344 L 214.816406 47.589844 Z M 197.191406 63.753906 L 203.183594 63.753906 L 211.367188 49.578125 L 197.191406 57.765625 Z M 168.5625 63.75 L 174.542969 63.753906 L 174.542969 57.761719 L 160.386719 49.589844 Z M 166.246094 63.753906 L 166.261719 63.75 L 156.9375 47.597656 L 136.246094 35.652344 L 126.738281 40.945312 L 126.914062 51.820312 L 147.585938 63.753906 Z M 213.359375 46.128906 L 225.292969 25.453125 L 220.007812 15.949219 L 209.128906 16.121094 L 187.015625 54.421875 L 185.871094 52.4375 L 185.871094 52.441406 L 190.199219 59.9375 L 190.015625 59.609375 L 197.191406 55.464844 Z M 176.535156 56.613281 L 181.71875 59.609375 L 184.722656 54.40625 L 162.617188 16.117188 L 151.734375 15.945312 L 146.449219 25.453125 L 158.386719 46.125 L 174.542969 55.460938 L 174.542969 36.792969 L 176.535156 40.242188 Z M 197.191406 55.464844 L 195.199219 56.613281 L 195.199219 40.242188 L 197.191406 36.792969 Z M 195.199219 36.257812 L 195.199219 12.390625 L 185.863281 6.800781 L 176.535156 12.390625 L 176.535156 36.238281 L 185.875 52.414062 Z M 195.199219 36.257812 "/></g><g style="fill:#177267;fill-opacity:1;"><g transform="translate(17.885989, 192.035376)"><path style="stroke:none" d="M 47.484375 2.53125 C 43.484375 2.53125 40.644531 1.59375 38.96875 -0.28125 C 37.300781 -2.15625 36.46875 -5.242188 36.46875 -9.546875 L 36.46875 -30.1875 L 23.4375 0 L 21.921875 0 L 7.03125 -31.078125 L 7.03125 0 L 4.4375 0 L 4.4375 -37.09375 L 10.671875 -37.09375 L 24.21875 -8.828125 L 36.421875 -37.09375 L 42.890625 -37.09375 L 42.890625 -9.546875 C 42.890625 -6.066406 43.242188 -3.4375 43.953125 -1.65625 C 44.660156 0.125 45.835938 1.085938 47.484375 1.234375 Z M 47.484375 2.53125 "/></g></g><g style="fill:#177267;fill-opacity:1;"><g transform="translate(66.327275, 192.035376)"><path style="stroke:none" d="M 8.09375 -40.015625 C 6.925781 -40.015625 6.003906 -40.398438 5.328125 -41.171875 C 4.660156 -41.941406 4.328125 -42.882812 4.328125 -44 C 4.328125 -44.90625 4.585938 -45.617188 5.109375 -46.140625 C 5.640625 -46.660156 6.332031 -46.921875 7.1875 -46.921875 C 8.351562 -46.921875 9.269531 -46.535156 9.9375 -45.765625 C 10.613281 -45.003906 10.953125 -44.0625 10.953125 -42.9375 C 10.953125 -42.039062 10.691406 -41.328125 10.171875 -40.796875 C 9.648438 -40.273438 8.957031 -40.015625 8.09375 -40.015625 Z M 9.71875 0 C 8.375 0 7.34375 -0.195312 6.625 -0.59375 C 5.914062 -0.988281 5.410156 -1.691406 5.109375 -2.703125 C 4.816406 -3.710938 4.671875 -5.171875 4.671875 -7.078125 L 4.671875 -37.09375 L 11.078125 -37.09375 L 11.078125 -7.078125 C 11.078125 -5.171875 11.335938 -3.757812 11.859375 -2.84375 C 12.378906 -1.925781 13.425781 -1.46875 15 -1.46875 L 15.796875 -1.46875 L 15.796875 0 Z M 9.71875 0 "/></g></g><g style="fill:#177267;fill-opacity:1;"><g transform="translate(82.961416, 192.035376)"><path style="stroke:none" d="M 5.625 -30.015625 C 5.625 -31.921875 5.359375 -33.332031 4.828125 -34.25 C 4.304688 -35.164062 3.257812 -35.625 1.6875 -35.625 L 0.84375 -35.625 L 0.84375 -37.09375 L 6.90625 -37.09375 C 8.257812 -37.09375 9.289062 -36.882812 10 -36.46875 C 10.71875 -36.0625 11.222656 -35.359375 11.515625 -34.359375 C 11.816406 -33.367188 11.96875 -31.921875 11.96875 -30.015625 L 11.96875 -20.40625 L 27.828125 -20.40625 L 27.828125 -37.09375 L 34.234375 -37.09375 L 34.234375 -7.078125 C 34.234375 -5.171875 34.492188 -3.757812 35.015625 -2.84375 C 35.535156 -1.925781 36.582031 -1.46875 38.15625 -1.46875 L 38.953125 -1.46875 L 38.953125 0 L 32.875 0 C 31.53125 0 30.5 -0.195312 29.78125 -0.59375 C 29.070312 -0.988281 28.566406 -1.691406 28.265625 -2.703125 C 27.972656 -3.710938 27.828125 -5.171875 27.828125 -7.078125 L 27.828125 -17.984375 L 11.96875 -17.984375 L 11.96875 0 L 5.625 0 Z M 5.625 -30.015625 "/></g></g><g style="fill:#177267;fill-opacity:1;"><g transform="translate(122.804659, 192.035376)"><path style="stroke:none" d="M 47.484375 2.53125 C 43.484375 2.53125 40.644531 1.59375 38.96875 -0.28125 C 37.300781 -2.15625 36.46875 -5.242188 36.46875 -9.546875 L 36.46875 -30.1875 L 23.4375 0 L 21.921875 0 L 7.03125 -31.078125 L 7.03125 0 L 4.4375 0 L 4.4375 -37.09375 L 10.671875 -37.09375 L 24.21875 -8.828125 L 36.421875 -37.09375 L 42.890625 -37.09375 L 42.890625 -9.546875 C 42.890625 -6.066406 43.242188 -3.4375 43.953125 -1.65625 C 44.660156 0.125 45.835938 1.085938 47.484375 1.234375 Z M 47.484375 2.53125 "/></g></g><g style="fill:#177267;fill-opacity:1;"><g transform="translate(171.245945, 192.035376)"><path style="stroke:none" d="M 35.1875 0.21875 C 33.050781 0.21875 31.0625 -0.273438 29.21875 -1.265625 C 27.382812 -2.253906 25.890625 -4.191406 24.734375 -7.078125 L 23.375 -10.390625 L 8.09375 -10.390625 L 3.546875 0 L 0.78125 0 L 17.03125 -37.09375 L 19.171875 -37.09375 L 31.703125 -7.078125 C 32.484375 -5.203125 33.332031 -3.816406 34.25 -2.921875 C 35.164062 -2.023438 36.300781 -1.5 37.65625 -1.34375 L 37.65625 -0.0625 C 36.976562 0.125 36.15625 0.21875 35.1875 0.21875 Z M 22.25 -12.8125 L 15.84375 -28.15625 L 9.15625 -12.8125 Z M 22.25 -12.8125 "/></g></g><g style="fill:#177267;fill-opacity:1;"><g transform="translate(207.324037, 192.035376)"><path style="stroke:none" d="M 8.375 -28.5 L 8.375 0 L 5.78125 0 L 5.78125 -30.34375 C 5.78125 -32.03125 5.394531 -33.332031 4.625 -34.25 C 3.863281 -35.164062 2.566406 -35.625 0.734375 -35.625 L 0.34375 -35.625 L 0.34375 -37.09375 L 4.15625 -37.09375 C 6.101562 -37.09375 7.710938 -36.8125 8.984375 -36.25 C 10.265625 -35.6875 11.351562 -34.84375 12.25 -33.71875 L 31.75 -10.453125 L 31.75 -37.09375 L 34.34375 -37.09375 L 34.34375 0.34375 L 32.3125 0.34375 Z M 8.375 -28.5 "/></g></g><g style="fill:#177267;fill-opacity:1;"><g transform="translate(246.043355, 192.035376)"><path style="stroke:none" d="M 5.625 -30.015625 C 5.625 -31.921875 5.359375 -33.332031 4.828125 -34.25 C 4.304688 -35.164062 3.257812 -35.625 1.6875 -35.625 L 0.84375 -35.625 L 0.84375 -37.09375 L 15.90625 -37.09375 C 23.363281 -37.09375 29.019531 -35.476562 32.875 -32.25 C 36.738281 -29.03125 38.671875 -24.535156 38.671875 -18.765625 C 38.671875 -15.054688 37.851562 -11.785156 36.21875 -8.953125 C 34.59375 -6.128906 32.175781 -3.929688 28.96875 -2.359375 C 25.769531 -0.785156 21.898438 0 17.359375 0 L 5.625 0 Z M 17.203125 -2.140625 C 19.859375 -2.140625 22.253906 -2.800781 24.390625 -4.125 C 26.523438 -5.457031 28.191406 -7.367188 29.390625 -9.859375 C 30.585938 -12.347656 31.1875 -15.242188 31.1875 -18.546875 C 31.1875 -21.804688 30.585938 -24.671875 29.390625 -27.140625 C 28.191406 -29.617188 26.523438 -31.539062 24.390625 -32.90625 C 22.253906 -34.269531 19.816406 -34.953125 17.078125 -34.953125 C 15.660156 -34.953125 13.976562 -34.75 12.03125 -34.34375 L 12.03125 -2.640625 C 13.15625 -2.410156 14.0625 -2.269531 14.75 -2.21875 C 15.445312 -2.164062 16.265625 -2.140625 17.203125 -2.140625 Z M 17.203125 -2.140625 "/></g></g><g style="fill:#177267;fill-opacity:1;"><g transform="translate(286.898139, 192.035376)"><path style="stroke:none" d="M 35.1875 0.21875 C 33.050781 0.21875 31.0625 -0.273438 29.21875 -1.265625 C 27.382812 -2.253906 25.890625 -4.191406 24.734375 -7.078125 L 23.375 -10.390625 L 8.09375 -10.390625 L 3.546875 0 L 0.78125 0 L 17.03125 -37.09375 L 19.171875 -37.09375 L 31.703125 -7.078125 C 32.484375 -5.203125 33.332031 -3.816406 34.25 -2.921875 C 35.164062 -2.023438 36.300781 -1.5 37.65625 -1.34375 L 37.65625 -0.0625 C 36.976562 0.125 36.15625 0.21875 35.1875 0.21875 Z M 22.25 -12.8125 L 15.84375 -28.15625 L 9.15625 -12.8125 Z M 22.25 -12.8125 "/></g></g><g style="fill:#177267;fill-opacity:1;"><g transform="translate(322.976248, 192.035376)"><path style="stroke:none" d="M 31.078125 0.5625 C 29.097656 0.5625 27.300781 -0.046875 25.6875 -1.265625 C 24.070312 -2.484375 22.367188 -4.59375 20.578125 -7.59375 L 14.953125 -17.03125 L 12.03125 -17.03125 L 12.03125 0 L 5.625 0 L 5.625 -30.015625 C 5.625 -31.921875 5.359375 -33.332031 4.828125 -34.25 C 4.304688 -35.164062 3.257812 -35.625 1.6875 -35.625 L 0.84375 -35.625 L 0.84375 -37.09375 L 16.015625 -37.09375 C 19.722656 -37.09375 23.101562 -36.390625 26.15625 -34.984375 C 29.21875 -33.578125 30.75 -30.910156 30.75 -26.984375 C 30.75 -24.171875 29.90625 -22.03125 28.21875 -20.5625 C 26.53125 -19.101562 24.335938 -18.054688 21.640625 -17.421875 L 27.546875 -7.59375 C 28.847656 -5.375 30.078125 -3.804688 31.234375 -2.890625 C 32.398438 -1.972656 33.585938 -1.441406 34.796875 -1.296875 L 34.796875 0 C 34.453125 0.144531 33.921875 0.273438 33.203125 0.390625 C 32.492188 0.503906 31.785156 0.5625 31.078125 0.5625 Z M 15.6875 -19.171875 C 16.957031 -19.171875 18.207031 -19.429688 19.4375 -19.953125 C 20.675781 -20.472656 21.707031 -21.320312 22.53125 -22.5 C 23.363281 -23.6875 23.78125 -25.195312 23.78125 -27.03125 C 23.78125 -28.863281 23.363281 -30.367188 22.53125 -31.546875 C 21.707031 -32.734375 20.6875 -33.597656 19.46875 -34.140625 C 18.25 -34.679688 17.003906 -34.953125 15.734375 -34.953125 C 14.835938 -34.953125 13.601562 -34.804688 12.03125 -34.515625 L 12.03125 -19.171875 Z M 15.6875 -19.171875 "/></g></g><g style="fill:#ffc574;fill-opacity:1;"><g transform="translate(71.810644, 216.365528)"><path style="stroke:none" d="M 7.6875 -5.453125 L 10.71875 -5.453125 L 10.71875 -1.078125 C 10.101562 -0.648438 9.390625 -0.320312 8.578125 -0.09375 C 7.773438 0.125 6.984375 0.234375 6.203125 0.234375 C 5.097656 0.234375 4.109375 0.00390625 3.234375 -0.453125 C 2.359375 -0.910156 1.671875 -1.550781 1.171875 -2.375 C 0.671875 -3.195312 0.421875 -4.128906 0.421875 -5.171875 C 0.421875 -6.210938 0.671875 -7.144531 1.171875 -7.96875 C 1.671875 -8.789062 2.363281 -9.429688 3.25 -9.890625 C 4.144531 -10.347656 5.15625 -10.578125 6.28125 -10.578125 C 7.289062 -10.578125 8.195312 -10.40625 9 -10.0625 C 9.8125 -9.726562 10.484375 -9.238281 11.015625 -8.59375 L 8.78125 -6.625 C 8.125 -7.382812 7.347656 -7.765625 6.453125 -7.765625 C 5.691406 -7.765625 5.082031 -7.53125 4.625 -7.0625 C 4.175781 -6.601562 3.953125 -5.972656 3.953125 -5.171875 C 3.953125 -4.390625 4.175781 -3.765625 4.625 -3.296875 C 5.070312 -2.828125 5.671875 -2.59375 6.421875 -2.59375 C 6.859375 -2.59375 7.28125 -2.675781 7.6875 -2.84375 Z M 7.6875 -5.453125 "/></g></g><g style="fill:#ffc574;fill-opacity:1;"><g transform="translate(88.032463, 216.365528)"><path style="stroke:none" d="M 6.265625 0.234375 C 5.148438 0.234375 4.148438 0.00390625 3.265625 -0.453125 C 2.378906 -0.921875 1.679688 -1.566406 1.171875 -2.390625 C 0.671875 -3.210938 0.421875 -4.140625 0.421875 -5.171875 C 0.421875 -6.203125 0.671875 -7.128906 1.171875 -7.953125 C 1.679688 -8.773438 2.378906 -9.414062 3.265625 -9.875 C 4.148438 -10.34375 5.148438 -10.578125 6.265625 -10.578125 C 7.378906 -10.578125 8.378906 -10.34375 9.265625 -9.875 C 10.148438 -9.414062 10.84375 -8.773438 11.34375 -7.953125 C 11.851562 -7.128906 12.109375 -6.203125 12.109375 -5.171875 C 12.109375 -4.140625 11.851562 -3.210938 11.34375 -2.390625 C 10.84375 -1.566406 10.148438 -0.921875 9.265625 -0.453125 C 8.378906 0.00390625 7.378906 0.234375 6.265625 0.234375 Z M 6.265625 -2.59375 C 6.703125 -2.59375 7.09375 -2.695312 7.4375 -2.90625 C 7.789062 -3.113281 8.070312 -3.410156 8.28125 -3.796875 C 8.488281 -4.191406 8.59375 -4.648438 8.59375 -5.171875 C 8.59375 -5.691406 8.488281 -6.144531 8.28125 -6.53125 C 8.070312 -6.925781 7.789062 -7.226562 7.4375 -7.4375 C 7.09375 -7.65625 6.703125 -7.765625 6.265625 -7.765625 C 5.828125 -7.765625 5.429688 -7.65625 5.078125 -7.4375 C 4.734375 -7.226562 4.457031 -6.925781 4.25 -6.53125 C 4.050781 -6.144531 3.953125 -5.691406 3.953125 -5.171875 C 3.953125 -4.648438 4.050781 -4.191406 4.25 -3.796875 C 4.457031 -3.410156 4.734375 -3.113281 5.078125 -2.90625 C 5.429688 -2.695312 5.828125 -2.59375 6.265625 -2.59375 Z M 4.625 -11.078125 C 4.238281 -11.078125 3.921875 -11.195312 3.671875 -11.4375 C 3.421875 -11.675781 3.296875 -11.988281 3.296875 -12.375 C 3.296875 -12.757812 3.421875 -13.070312 3.671875 -13.3125 C 3.921875 -13.5625 4.238281 -13.6875 4.625 -13.6875 C 5.007812 -13.6875 5.328125 -13.5625 5.578125 -13.3125 C 5.828125 -13.070312 5.953125 -12.757812 5.953125 -12.375 C 5.953125 -11.988281 5.828125 -11.675781 5.578125 -11.4375 C 5.328125 -11.195312 5.007812 -11.078125 4.625 -11.078125 Z M 7.90625 -11.078125 C 7.519531 -11.078125 7.203125 -11.195312 6.953125 -11.4375 C 6.703125 -11.675781 6.578125 -11.988281 6.578125 -12.375 C 6.578125 -12.757812 6.703125 -13.070312 6.953125 -13.3125 C 7.203125 -13.5625 7.519531 -13.6875 7.90625 -13.6875 C 8.289062 -13.6875 8.609375 -13.5625 8.859375 -13.3125 C 9.109375 -13.070312 9.234375 -12.757812 9.234375 -12.375 C 9.234375 -11.988281 9.109375 -11.675781 8.859375 -11.4375 C 8.609375 -11.195312 8.289062 -11.078125 7.90625 -11.078125 Z M 7.90625 -11.078125 "/></g></g><g style="fill:#ffc574;fill-opacity:1;"><g transform="translate(105.422371, 216.365528)"><path style="stroke:none" d="M 11.046875 -10.34375 L 11.046875 0 L 8.171875 0 L 4.25 -4.703125 L 4.25 0 L 0.84375 0 L 0.84375 -10.34375 L 3.703125 -10.34375 L 7.640625 -5.640625 L 7.640625 -10.34375 Z M 11.046875 -10.34375 "/></g></g><g style="fill:#ffc574;fill-opacity:1;"><g transform="translate(122.1617, 216.365528)"><path style="stroke:none" d="M 5.796875 0.234375 C 4.210938 0.234375 2.972656 -0.191406 2.078125 -1.046875 C 1.191406 -1.898438 0.75 -3.101562 0.75 -4.65625 L 0.75 -10.34375 L 4.25 -10.34375 L 4.25 -4.765625 C 4.25 -4.003906 4.382812 -3.453125 4.65625 -3.109375 C 4.925781 -2.765625 5.316406 -2.59375 5.828125 -2.59375 C 6.335938 -2.59375 6.726562 -2.765625 7 -3.109375 C 7.269531 -3.453125 7.40625 -4.003906 7.40625 -4.765625 L 7.40625 -10.34375 L 10.828125 -10.34375 L 10.828125 -4.65625 C 10.828125 -3.101562 10.382812 -1.898438 9.5 -1.046875 C 8.613281 -0.191406 7.378906 0.234375 5.796875 0.234375 Z M 4.1875 -11.078125 C 3.800781 -11.078125 3.484375 -11.195312 3.234375 -11.4375 C 2.984375 -11.675781 2.859375 -11.988281 2.859375 -12.375 C 2.859375 -12.757812 2.984375 -13.070312 3.234375 -13.3125 C 3.484375 -13.5625 3.800781 -13.6875 4.1875 -13.6875 C 4.570312 -13.6875 4.890625 -13.5625 5.140625 -13.3125 C 5.390625 -13.070312 5.515625 -12.757812 5.515625 -12.375 C 5.515625 -11.988281 5.390625 -11.675781 5.140625 -11.4375 C 4.890625 -11.195312 4.570312 -11.078125 4.1875 -11.078125 Z M 7.46875 -11.078125 C 7.082031 -11.078125 6.765625 -11.195312 6.515625 -11.4375 C 6.265625 -11.675781 6.140625 -11.988281 6.140625 -12.375 C 6.140625 -12.757812 6.265625 -13.070312 6.515625 -13.3125 C 6.765625 -13.5625 7.082031 -13.6875 7.46875 -13.6875 C 7.851562 -13.6875 8.171875 -13.5625 8.421875 -13.3125 C 8.671875 -13.070312 8.796875 -12.757812 8.796875 -12.375 C 8.796875 -11.988281 8.671875 -11.675781 8.421875 -11.4375 C 8.171875 -11.195312 7.851562 -11.078125 7.46875 -11.078125 Z M 7.46875 -11.078125 "/></g></g><g style="fill:#ffc574;fill-opacity:1;"><g transform="translate(138.605321, 216.365528)"><path style="stroke:none" d="M 0.84375 -10.34375 L 4.328125 -10.34375 L 4.328125 -2.703125 L 9 -2.703125 L 9 0 L 0.84375 0 Z M 0.84375 -10.34375 "/></g></g><g style="fill:#ffc574;fill-opacity:1;"><g transform="translate(152.579716, 216.365528)"><path style="stroke:none" d=""/></g></g><g style="fill:#ffc574;fill-opacity:1;"><g transform="translate(161.867051, 216.365528)"><path style="stroke:none" d="M 5.28125 -2.59375 L 4.328125 -2.59375 L 4.328125 0 L 0.84375 0 L 0.84375 -10.34375 L 5.828125 -10.34375 C 6.773438 -10.34375 7.601562 -10.1875 8.3125 -9.875 C 9.03125 -9.5625 9.578125 -9.109375 9.953125 -8.515625 C 10.335938 -7.921875 10.53125 -7.226562 10.53125 -6.4375 C 10.53125 -5.707031 10.363281 -5.066406 10.03125 -4.515625 C 9.695312 -3.960938 9.21875 -3.519531 8.59375 -3.1875 L 10.765625 0 L 7.03125 0 Z M 7.015625 -6.4375 C 7.015625 -6.820312 6.894531 -7.117188 6.65625 -7.328125 C 6.425781 -7.546875 6.078125 -7.65625 5.609375 -7.65625 L 4.328125 -7.65625 L 4.328125 -5.234375 L 5.609375 -5.234375 C 6.078125 -5.234375 6.425781 -5.335938 6.65625 -5.546875 C 6.894531 -5.765625 7.015625 -6.0625 7.015625 -6.4375 Z M 7.015625 -6.4375 "/></g></g><g style="fill:#ffc574;fill-opacity:1;"><g transform="translate(177.734017, 216.365528)"><path style="stroke:none" d="M 9.4375 -2.625 L 9.4375 0 L 0.84375 0 L 0.84375 -10.34375 L 9.25 -10.34375 L 9.25 -7.71875 L 4.265625 -7.71875 L 4.265625 -6.5 L 8.640625 -6.5 L 8.640625 -3.984375 L 4.265625 -3.984375 L 4.265625 -2.625 Z M 9.4375 -2.625 "/></g></g><g style="fill:#ffc574;fill-opacity:1;"><g transform="translate(192.536408, 216.365528)"><path style="stroke:none" d="M 11.046875 -10.34375 L 11.046875 0 L 7.546875 0 L 7.546875 -3.8125 L 4.328125 -3.8125 L 4.328125 0 L 0.84375 0 L 0.84375 -10.34375 L 4.328125 -10.34375 L 4.328125 -6.6875 L 7.546875 -6.6875 L 7.546875 -10.34375 Z M 11.046875 -10.34375 "/></g></g><g style="fill:#ffc574;fill-opacity:1;"><g transform="translate(209.275737, 216.365528)"><path style="stroke:none" d="M 9.125 -5.40625 C 9.726562 -5.175781 10.195312 -4.84375 10.53125 -4.40625 C 10.875 -3.976562 11.046875 -3.460938 11.046875 -2.859375 C 11.046875 -1.953125 10.671875 -1.25 9.921875 -0.75 C 9.171875 -0.25 8.085938 0 6.671875 0 L 0.84375 0 L 0.84375 -10.34375 L 6.375 -10.34375 C 7.75 -10.34375 8.785156 -10.097656 9.484375 -9.609375 C 10.191406 -9.117188 10.546875 -8.460938 10.546875 -7.640625 C 10.546875 -7.160156 10.425781 -6.726562 10.1875 -6.34375 C 9.945312 -5.957031 9.59375 -5.644531 9.125 -5.40625 Z M 4.265625 -7.90625 L 4.265625 -6.375 L 5.890625 -6.375 C 6.648438 -6.375 7.03125 -6.628906 7.03125 -7.140625 C 7.03125 -7.648438 6.648438 -7.90625 5.890625 -7.90625 Z M 6.375 -2.4375 C 7.144531 -2.4375 7.53125 -2.707031 7.53125 -3.25 C 7.53125 -3.789062 7.144531 -4.0625 6.375 -4.0625 L 4.265625 -4.0625 L 4.265625 -2.4375 Z M 6.375 -2.4375 "/></g></g><g style="fill:#ffc574;fill-opacity:1;"><g transform="translate(225.556702, 216.365528)"><path style="stroke:none" d="M 9.4375 -2.625 L 9.4375 0 L 0.84375 0 L 0.84375 -10.34375 L 9.25 -10.34375 L 9.25 -7.71875 L 4.265625 -7.71875 L 4.265625 -6.5 L 8.640625 -6.5 L 8.640625 -3.984375 L 4.265625 -3.984375 L 4.265625 -2.625 Z M 9.4375 -2.625 "/></g></g><g style="fill:#ffc574;fill-opacity:1;"><g transform="translate(240.359093, 216.365528)"><path style="stroke:none" d="M 5.28125 -2.59375 L 4.328125 -2.59375 L 4.328125 0 L 0.84375 0 L 0.84375 -10.34375 L 5.828125 -10.34375 C 6.773438 -10.34375 7.601562 -10.1875 8.3125 -9.875 C 9.03125 -9.5625 9.578125 -9.109375 9.953125 -8.515625 C 10.335938 -7.921875 10.53125 -7.226562 10.53125 -6.4375 C 10.53125 -5.707031 10.363281 -5.066406 10.03125 -4.515625 C 9.695312 -3.960938 9.21875 -3.519531 8.59375 -3.1875 L 10.765625 0 L 7.03125 0 Z M 7.015625 -6.4375 C 7.015625 -6.820312 6.894531 -7.117188 6.65625 -7.328125 C 6.425781 -7.546875 6.078125 -7.65625 5.609375 -7.65625 L 4.328125 -7.65625 L 4.328125 -5.234375 L 5.609375 -5.234375 C 6.078125 -5.234375 6.425781 -5.335938 6.65625 -5.546875 C 6.894531 -5.765625 7.015625 -6.0625 7.015625 -6.4375 Z M 7.015625 -6.4375 "/></g></g><g style="fill:#ffc574;fill-opacity:1;"><g transform="translate(256.226059, 216.365528)"><path style="stroke:none" d="M 0.84375 -10.34375 L 4.328125 -10.34375 L 4.328125 0 L 0.84375 0 Z M 2.578125 -11.046875 C 2.085938 -11.046875 1.679688 -11.203125 1.359375 -11.515625 C 1.046875 -11.828125 0.890625 -12.234375 0.890625 -12.734375 C 0.890625 -13.222656 1.046875 -13.625 1.359375 -13.9375 C 1.679688 -14.25 2.085938 -14.40625 2.578125 -14.40625 C 3.078125 -14.40625 3.484375 -14.25 3.796875 -13.9375 C 4.109375 -13.625 4.265625 -13.222656 4.265625 -12.734375 C 4.265625 -12.234375 4.109375 -11.828125 3.796875 -11.515625 C 3.484375 -11.203125 3.078125 -11.046875 2.578125 -11.046875 Z M 2.578125 -11.046875 "/></g></g><g style="fill:#ffc574;fill-opacity:1;"><g transform="translate(266.252672, 216.365528)"><path style="stroke:none" d="M 11.046875 -10.34375 L 11.046875 0 L 8.171875 0 L 4.25 -4.703125 L 4.25 0 L 0.84375 0 L 0.84375 -10.34375 L 3.703125 -10.34375 L 7.640625 -5.640625 L 7.640625 -10.34375 Z M 11.046875 -10.34375 "/></g></g><g style="fill:#ffc574;fill-opacity:1;"><g transform="translate(282.992001, 216.365528)"><path style="stroke:none" d="M 0.84375 -10.34375 L 4.328125 -10.34375 L 4.328125 0 L 0.84375 0 Z M 2.578125 -11.046875 C 2.085938 -11.046875 1.679688 -11.203125 1.359375 -11.515625 C 1.046875 -11.828125 0.890625 -12.234375 0.890625 -12.734375 C 0.890625 -13.222656 1.046875 -13.625 1.359375 -13.9375 C 1.679688 -14.25 2.085938 -14.40625 2.578125 -14.40625 C 3.078125 -14.40625 3.484375 -14.25 3.796875 -13.9375 C 4.109375 -13.625 4.265625 -13.222656 4.265625 -12.734375 C 4.265625 -12.234375 4.109375 -11.828125 3.796875 -11.515625 C 3.484375 -11.203125 3.078125 -11.046875 2.578125 -11.046875 Z M 2.578125 -11.046875 "/></g></g><g style="fill:#ffc574;fill-opacity:1;"><g transform="translate(293.018613, 216.365528)"><path style="stroke:none" d="M 9.984375 -2.703125 L 9.984375 0 L 0.46875 0 L 0.46875 -2.140625 L 5.203125 -7.640625 L 0.625 -7.640625 L 0.625 -10.34375 L 9.734375 -10.34375 L 9.734375 -8.203125 L 5.015625 -2.703125 Z M 9.984375 -2.703125 "/></g></g></g></svg>