<svg xmlns="http://www.w3.org/2000/svg" xmlns:xlink="http://www.w3.org/1999/xlink" width="500" zoomAndPan="magnify" viewBox="0 0 375 225" height="300" preserveAspectRatio="xMidYMid meet" version="1.2"><defs><clipPath id="68f3cff927"><path d="M 121.386719 13.605469 L 250.386719 13.605469 L 250.386719 142.605469 L 121.386719 142.605469 Z M 121.386719 13.605469 "/></clipPath></defs><g id="468ef068ac"><g clip-rule="nonzero" clip-path="url(#68f3cff927)"><path style=" stroke:none;fill-rule:evenodd;fill:#177267;fill-opacity:1;" d="M 175.570312 116.835938 L 165.960938 133.472656 C 165.800781 133.75 165.507812 133.921875 165.1875 133.925781 L 154.171875 134.105469 C 153.832031 134.109375 153.523438 133.929688 153.355469 133.632812 L 148.003906 124.003906 C 147.84375 123.722656 147.847656 123.382812 148.007812 123.105469 L 157.609375 106.46875 L 140.976562 116.074219 C 140.699219 116.234375 140.355469 116.238281 140.078125 116.082031 L 130.445312 110.722656 C 130.15625 110.5625 129.972656 110.25 129.980469 109.914062 L 130.15625 98.894531 C 130.160156 98.574219 130.335938 98.277344 130.613281 98.117188 L 147.246094 88.515625 L 128.039062 88.515625 C 127.71875 88.515625 127.417969 88.347656 127.253906 88.070312 L 121.59375 78.617188 C 121.417969 78.328125 121.417969 77.96875 121.59375 77.679688 L 127.253906 68.222656 C 127.417969 67.949219 127.71875 67.78125 128.039062 67.78125 L 147.25 67.78125 L 130.617188 58.175781 C 130.339844 58.015625 130.167969 57.722656 130.164062 57.402344 L 129.984375 46.386719 C 129.980469 46.046875 130.160156 45.738281 130.457031 45.570312 L 140.082031 40.214844 C 140.363281 40.058594 140.707031 40.0625 140.984375 40.222656 L 157.625 49.820312 L 148.019531 33.1875 C 147.863281 32.910156 147.859375 32.566406 148.015625 32.285156 L 153.371094 22.65625 C 153.535156 22.363281 153.84375 22.183594 154.183594 22.1875 L 165.199219 22.367188 C 165.523438 22.371094 165.816406 22.542969 165.976562 22.820312 L 175.570312 39.4375 L 175.570312 20.25 C 175.570312 19.929688 175.738281 19.632812 176.015625 19.46875 L 185.464844 13.804688 C 185.757812 13.632812 186.113281 13.632812 186.40625 13.804688 L 195.855469 19.46875 C 196.132812 19.632812 196.300781 19.929688 196.300781 20.25 L 196.300781 39.457031 L 205.90625 22.824219 C 206.066406 22.546875 206.359375 22.371094 206.679688 22.367188 L 217.695312 22.191406 C 218.035156 22.1875 218.34375 22.367188 218.511719 22.660156 L 223.863281 32.289062 C 224.023438 32.570312 224.019531 32.910156 223.859375 33.1875 L 214.253906 49.824219 L 230.890625 40.222656 C 231.167969 40.0625 231.507812 40.058594 231.792969 40.214844 L 241.417969 45.570312 C 241.71875 45.734375 241.894531 46.046875 241.894531 46.382812 L 241.710938 57.402344 C 241.710938 57.722656 241.535156 58.015625 241.257812 58.175781 L 224.625 67.78125 L 243.832031 67.78125 C 244.152344 67.78125 244.453125 67.949219 244.613281 68.222656 L 250.277344 77.679688 C 250.445312 77.96875 250.445312 78.328125 250.277344 78.617188 L 244.613281 88.070312 C 244.453125 88.347656 244.152344 88.515625 243.832031 88.515625 L 224.628906 88.515625 L 241.265625 98.121094 C 241.542969 98.28125 241.714844 98.574219 241.71875 98.898438 L 241.898438 109.910156 C 241.902344 110.25 241.722656 110.5625 241.429688 110.726562 L 231.800781 116.082031 C 231.515625 116.238281 231.175781 116.234375 230.898438 116.074219 L 214.273438 106.476562 L 223.875 123.101562 C 224.035156 123.378906 224.035156 123.71875 223.878906 124 L 218.527344 133.628906 C 218.359375 133.925781 218.050781 134.105469 217.710938 134.101562 L 206.695312 133.921875 C 206.375 133.917969 206.078125 133.746094 205.917969 133.46875 L 196.300781 116.835938 L 196.300781 136.046875 C 196.300781 136.367188 196.132812 136.664062 195.855469 136.828125 L 186.40625 142.488281 C 186.113281 142.660156 185.757812 142.660156 185.464844 142.488281 L 176.015625 136.828125 C 175.738281 136.664062 175.570312 136.367188 175.570312 136.046875 Z M 185.933594 98.882812 L 177.394531 113.679688 L 177.394531 135.527344 L 185.933594 140.644531 L 194.480469 135.527344 L 194.480469 113.679688 L 185.949219 98.878906 Z M 160.765625 104.648438 L 160.769531 104.648438 L 149.84375 123.570312 L 154.6875 132.273438 L 164.640625 132.113281 L 175.570312 113.183594 L 175.570312 96.105469 Z M 196.308594 94 L 209.289062 101.488281 L 201.800781 88.515625 L 196.300781 88.515625 L 196.300781 113.164062 L 207.238281 132.109375 L 217.191406 132.269531 L 222.035156 123.566406 L 211.117188 104.652344 L 196.308594 96.105469 Z M 212.445312 103.308594 L 231.363281 114.238281 L 240.0625 109.402344 L 239.90625 99.441406 L 220.984375 88.515625 L 203.90625 88.515625 Z M 167.980469 88.515625 L 150.894531 88.515625 L 131.96875 99.4375 L 131.808594 109.394531 L 140.515625 114.238281 L 159.4375 103.3125 Z M 184.882812 97.058594 L 182.140625 92.308594 L 177.394531 95.050781 L 177.394531 110.027344 L 184.878906 97.058594 Z M 189.730469 92.308594 L 187 97.054688 L 194.480469 110.007812 L 194.480469 95.050781 Z M 162.59375 101.488281 L 175.570312 94 L 175.570312 88.515625 L 169.90625 88.515625 L 170.082031 88.515625 Z M 173.351562 73.441406 L 174.265625 75.019531 L 168.847656 78.148438 L 167.027344 77.097656 L 172.683594 80.363281 L 171.769531 81.941406 L 167.023438 79.199219 L 154.050781 86.691406 L 169.027344 86.691406 L 167.980469 88.515625 C 167.980469 88.515625 172.683594 80.363281 172.683594 80.363281 L 174.265625 81.273438 L 171.136719 86.691406 L 177.394531 86.691406 L 177.394531 92.945312 L 181.230469 90.730469 L 182.8125 89.820312 L 185.933594 95.234375 L 189.0625 89.820312 L 194.480469 92.945312 L 194.480469 86.691406 L 200.734375 86.691406 L 197.605469 81.273438 L 203.023438 78.148438 L 197.605469 75.019531 L 200.734375 69.605469 L 194.480469 69.605469 L 194.480469 63.347656 L 190.644531 65.566406 L 189.0625 66.476562 L 185.933594 61.058594 L 182.8125 66.476562 L 181.230469 65.566406 L 177.394531 63.347656 L 177.394531 69.605469 L 171.136719 69.605469 Z M 150.410156 69.605469 L 128.558594 69.605469 L 123.4375 78.148438 L 128.558594 86.691406 L 150.40625 86.691406 L 165.203125 78.144531 Z M 206.671875 78.148438 L 206.675781 78.148438 L 221.46875 86.691406 L 243.316406 86.691406 L 248.433594 78.148438 L 243.316406 69.605469 L 221.46875 69.605469 Z M 204.851562 79.203125 L 204.847656 79.199219 L 200.09375 81.941406 L 202.835938 86.691406 L 217.824219 86.691406 Z M 200.09375 74.351562 L 204.847656 77.09375 L 217.820312 69.605469 L 202.839844 69.605469 Z M 169.027344 69.605469 L 154.054688 69.605469 L 167.027344 77.09375 L 171.769531 74.351562 Z M 203.886719 67.78125 L 220.980469 67.78125 L 239.902344 56.855469 L 240.054688 46.898438 L 231.355469 42.058594 L 212.429688 52.984375 Z M 196.300781 67.78125 L 201.785156 67.78125 L 209.273438 54.804688 L 196.300781 62.296875 Z M 170.097656 67.777344 L 175.570312 67.78125 L 175.570312 62.296875 L 162.613281 54.816406 Z M 167.980469 67.78125 L 167.992188 67.777344 L 159.457031 52.992188 L 140.519531 42.058594 L 131.816406 46.902344 L 131.976562 56.855469 L 150.898438 67.78125 Z M 211.097656 51.648438 L 222.023438 32.726562 L 217.183594 24.023438 L 207.226562 24.183594 L 186.988281 59.238281 L 185.941406 57.421875 L 185.9375 57.425781 L 189.898438 64.289062 L 189.730469 63.984375 L 196.300781 60.191406 Z M 177.394531 61.242188 L 182.140625 63.984375 L 184.886719 59.222656 L 164.65625 24.179688 L 154.695312 24.023438 L 149.859375 32.722656 L 160.78125 51.644531 L 175.570312 60.191406 L 175.570312 43.105469 L 177.394531 46.261719 Z M 196.300781 60.191406 L 194.480469 61.242188 L 194.480469 46.261719 L 196.300781 43.105469 Z M 194.480469 42.613281 L 194.480469 20.765625 L 185.933594 15.652344 L 177.394531 20.765625 L 177.394531 42.597656 L 185.941406 57.402344 Z M 194.480469 42.613281 "/></g><g style="fill:#177267;fill-opacity:1;"><g transform="translate(32.092711, 185.373534)"><path style="stroke:none" d="M 43.515625 2.3125 C 39.835938 2.3125 37.234375 1.457031 35.703125 -0.25 C 34.179688 -1.96875 33.421875 -4.800781 33.421875 -8.75 L 33.421875 -27.65625 L 21.46875 0 L 20.078125 0 L 6.4375 -28.484375 L 6.4375 0 L 4.0625 0 L 4.0625 -33.984375 L 9.78125 -33.984375 L 22.203125 -8.078125 L 33.375 -33.984375 L 39.296875 -33.984375 L 39.296875 -8.75 C 39.296875 -5.5625 39.617188 -3.148438 40.265625 -1.515625 C 40.921875 0.109375 42.003906 0.992188 43.515625 1.140625 Z M 43.515625 2.3125 "/></g></g><g style="fill:#177267;fill-opacity:1;"><g transform="translate(76.476595, 185.373534)"><path style="stroke:none" d="M 7.421875 -36.671875 C 6.347656 -36.671875 5.503906 -37.019531 4.890625 -37.71875 C 4.273438 -38.425781 3.96875 -39.296875 3.96875 -40.328125 C 3.96875 -41.148438 4.207031 -41.800781 4.6875 -42.28125 C 5.164062 -42.757812 5.800781 -43 6.59375 -43 C 7.65625 -43 8.492188 -42.644531 9.109375 -41.9375 C 9.734375 -41.238281 10.046875 -40.375 10.046875 -39.34375 C 10.046875 -38.519531 9.800781 -37.867188 9.3125 -37.390625 C 8.832031 -36.910156 8.203125 -36.671875 7.421875 -36.671875 Z M 8.90625 0 C 7.675781 0 6.734375 -0.175781 6.078125 -0.53125 C 5.421875 -0.894531 4.957031 -1.539062 4.6875 -2.46875 C 4.414062 -3.394531 4.28125 -4.734375 4.28125 -6.484375 L 4.28125 -33.984375 L 10.140625 -33.984375 L 10.140625 -6.484375 C 10.140625 -4.734375 10.378906 -3.4375 10.859375 -2.59375 C 11.347656 -1.757812 12.3125 -1.34375 13.75 -1.34375 L 14.46875 -1.34375 L 14.46875 0 Z M 8.90625 0 "/></g></g><g style="fill:#177267;fill-opacity:1;"><g transform="translate(91.717474, 185.373534)"><path style="stroke:none" d="M 5.15625 -27.5 C 5.15625 -29.25 4.910156 -30.546875 4.421875 -31.390625 C 3.941406 -32.234375 2.984375 -32.65625 1.546875 -32.65625 L 0.765625 -32.65625 L 0.765625 -33.984375 L 6.328125 -33.984375 C 7.566406 -33.984375 8.507812 -33.796875 9.15625 -33.421875 C 9.8125 -33.046875 10.273438 -32.398438 10.546875 -31.484375 C 10.828125 -30.578125 10.96875 -29.25 10.96875 -27.5 L 10.96875 -18.6875 L 25.5 -18.6875 L 25.5 -33.984375 L 31.359375 -33.984375 L 31.359375 -6.484375 C 31.359375 -4.734375 31.597656 -3.4375 32.078125 -2.59375 C 32.566406 -1.757812 33.53125 -1.34375 34.96875 -1.34375 L 35.6875 -1.34375 L 35.6875 0 L 30.125 0 C 28.894531 0 27.953125 -0.175781 27.296875 -0.53125 C 26.640625 -0.894531 26.175781 -1.539062 25.90625 -2.46875 C 25.632812 -3.394531 25.5 -4.734375 25.5 -6.484375 L 25.5 -16.484375 L 10.96875 -16.484375 L 10.96875 0 L 5.15625 0 Z M 5.15625 -27.5 "/></g></g><g style="fill:#177267;fill-opacity:1;"><g transform="translate(128.223479, 185.373534)"><path style="stroke:none" d="M 43.515625 2.3125 C 39.835938 2.3125 37.234375 1.457031 35.703125 -0.25 C 34.179688 -1.96875 33.421875 -4.800781 33.421875 -8.75 L 33.421875 -27.65625 L 21.46875 0 L 20.078125 0 L 6.4375 -28.484375 L 6.4375 0 L 4.0625 0 L 4.0625 -33.984375 L 9.78125 -33.984375 L 22.203125 -8.078125 L 33.375 -33.984375 L 39.296875 -33.984375 L 39.296875 -8.75 C 39.296875 -5.5625 39.617188 -3.148438 40.265625 -1.515625 C 40.921875 0.109375 42.003906 0.992188 43.515625 1.140625 Z M 43.515625 2.3125 "/></g></g><g style="fill:#177267;fill-opacity:1;"><g transform="translate(172.607362, 185.373534)"><path style="stroke:none" d="M 32.234375 0.203125 C 30.273438 0.203125 28.453125 -0.25 26.765625 -1.15625 C 25.085938 -2.070312 23.71875 -3.847656 22.65625 -6.484375 L 21.421875 -9.53125 L 7.421875 -9.53125 L 3.25 0 L 0.71875 0 L 15.609375 -33.984375 L 17.5625 -33.984375 L 29.046875 -6.484375 C 29.765625 -4.765625 30.546875 -3.492188 31.390625 -2.671875 C 32.234375 -1.847656 33.269531 -1.367188 34.5 -1.234375 L 34.5 -0.046875 C 33.882812 0.117188 33.128906 0.203125 32.234375 0.203125 Z M 20.390625 -11.734375 L 14.515625 -25.796875 L 8.390625 -11.734375 Z M 20.390625 -11.734375 "/></g></g><g style="fill:#177267;fill-opacity:1;"><g transform="translate(205.663581, 185.373534)"><path style="stroke:none" d="M 7.671875 -26.109375 L 7.671875 0 L 5.296875 0 L 5.296875 -27.8125 C 5.296875 -29.351562 4.941406 -30.546875 4.234375 -31.390625 C 3.535156 -32.234375 2.347656 -32.65625 0.671875 -32.65625 L 0.3125 -32.65625 L 0.3125 -33.984375 L 3.8125 -33.984375 C 5.59375 -33.984375 7.066406 -33.722656 8.234375 -33.203125 C 9.398438 -32.691406 10.398438 -31.925781 11.234375 -30.90625 L 29.09375 -9.578125 L 29.09375 -33.984375 L 31.46875 -33.984375 L 31.46875 0.3125 L 29.609375 0.3125 Z M 7.671875 -26.109375 "/></g></g><g style="fill:#177267;fill-opacity:1;"><g transform="translate(241.139801, 185.373534)"><path style="stroke:none" d="M 5.15625 -27.5 C 5.15625 -29.25 4.910156 -30.546875 4.421875 -31.390625 C 3.941406 -32.234375 2.984375 -32.65625 1.546875 -32.65625 L 0.765625 -32.65625 L 0.765625 -33.984375 L 14.578125 -33.984375 C 21.410156 -33.984375 26.59375 -32.503906 30.125 -29.546875 C 33.664062 -26.597656 35.4375 -22.484375 35.4375 -17.203125 C 35.4375 -13.804688 34.6875 -10.8125 33.1875 -8.21875 C 31.695312 -5.625 29.484375 -3.601562 26.546875 -2.15625 C 23.609375 -0.71875 20.0625 0 15.90625 0 L 5.15625 0 Z M 15.765625 -1.953125 C 18.203125 -1.953125 20.394531 -2.5625 22.34375 -3.78125 C 24.300781 -5 25.828125 -6.75 26.921875 -9.03125 C 28.023438 -11.320312 28.578125 -13.976562 28.578125 -17 C 28.578125 -19.976562 28.023438 -22.601562 26.921875 -24.875 C 25.828125 -27.144531 24.300781 -28.90625 22.34375 -30.15625 C 20.394531 -31.40625 18.164062 -32.03125 15.65625 -32.03125 C 14.351562 -32.03125 12.804688 -31.84375 11.015625 -31.46875 L 11.015625 -2.421875 C 12.046875 -2.210938 12.878906 -2.082031 13.515625 -2.03125 C 14.148438 -1.976562 14.898438 -1.953125 15.765625 -1.953125 Z M 15.765625 -1.953125 "/></g></g><g style="fill:#177267;fill-opacity:1;"><g transform="translate(278.572621, 185.373534)"><path style="stroke:none" d="M 32.234375 0.203125 C 30.273438 0.203125 28.453125 -0.25 26.765625 -1.15625 C 25.085938 -2.070312 23.71875 -3.847656 22.65625 -6.484375 L 21.421875 -9.53125 L 7.421875 -9.53125 L 3.25 0 L 0.71875 0 L 15.609375 -33.984375 L 17.5625 -33.984375 L 29.046875 -6.484375 C 29.765625 -4.765625 30.546875 -3.492188 31.390625 -2.671875 C 32.234375 -1.847656 33.269531 -1.367188 34.5 -1.234375 L 34.5 -0.046875 C 33.882812 0.117188 33.128906 0.203125 32.234375 0.203125 Z M 20.390625 -11.734375 L 14.515625 -25.796875 L 8.390625 -11.734375 Z M 20.390625 -11.734375 "/></g></g><g style="fill:#177267;fill-opacity:1;"><g transform="translate(311.628857, 185.373534)"><path style="stroke:none" d="M 28.484375 0.515625 C 26.660156 0.515625 25.007812 -0.0390625 23.53125 -1.15625 C 22.0625 -2.269531 20.5 -4.203125 18.84375 -6.953125 L 13.703125 -15.609375 L 11.015625 -15.609375 L 11.015625 0 L 5.15625 0 L 5.15625 -27.5 C 5.15625 -29.25 4.910156 -30.546875 4.421875 -31.390625 C 3.941406 -32.234375 2.984375 -32.65625 1.546875 -32.65625 L 0.765625 -32.65625 L 0.765625 -33.984375 L 14.671875 -33.984375 C 18.078125 -33.984375 21.175781 -33.335938 23.96875 -32.046875 C 26.769531 -30.765625 28.171875 -28.320312 28.171875 -24.71875 C 28.171875 -22.144531 27.394531 -20.1875 25.84375 -18.84375 C 24.300781 -17.507812 22.296875 -16.550781 19.828125 -15.96875 L 25.234375 -6.953125 C 26.429688 -4.921875 27.5625 -3.484375 28.625 -2.640625 C 29.695312 -1.804688 30.78125 -1.320312 31.875 -1.1875 L 31.875 0 C 31.570312 0.132812 31.09375 0.253906 30.4375 0.359375 C 29.78125 0.460938 29.128906 0.515625 28.484375 0.515625 Z M 14.375 -17.5625 C 15.539062 -17.5625 16.6875 -17.800781 17.8125 -18.28125 C 18.945312 -18.757812 19.890625 -19.539062 20.640625 -20.625 C 21.398438 -21.707031 21.78125 -23.085938 21.78125 -24.765625 C 21.78125 -26.453125 21.398438 -27.835938 20.640625 -28.921875 C 19.890625 -30.003906 18.957031 -30.789062 17.84375 -31.28125 C 16.726562 -31.78125 15.585938 -32.03125 14.421875 -32.03125 C 13.597656 -32.03125 12.460938 -31.894531 11.015625 -31.625 L 11.015625 -17.5625 Z M 14.375 -17.5625 "/></g></g><g style="fill:#ffc574;fill-opacity:1;"><g transform="translate(81.500679, 207.665836)"><path style="stroke:none" d="M 7.046875 -5 L 9.828125 -5 L 9.828125 -0.984375 C 9.265625 -0.597656 8.613281 -0.300781 7.875 -0.09375 C 7.132812 0.113281 6.40625 0.21875 5.6875 0.21875 C 4.675781 0.21875 3.769531 0.0078125 2.96875 -0.40625 C 2.164062 -0.832031 1.535156 -1.421875 1.078125 -2.171875 C 0.617188 -2.929688 0.390625 -3.785156 0.390625 -4.734375 C 0.390625 -5.691406 0.617188 -6.546875 1.078125 -7.296875 C 1.535156 -8.054688 2.171875 -8.644531 2.984375 -9.0625 C 3.804688 -9.488281 4.726562 -9.703125 5.75 -9.703125 C 6.6875 -9.703125 7.519531 -9.546875 8.25 -9.234375 C 8.988281 -8.921875 9.601562 -8.46875 10.09375 -7.875 L 8.046875 -6.0625 C 7.453125 -6.757812 6.742188 -7.109375 5.921875 -7.109375 C 5.210938 -7.109375 4.648438 -6.894531 4.234375 -6.46875 C 3.816406 -6.050781 3.609375 -5.472656 3.609375 -4.734375 C 3.609375 -4.023438 3.8125 -3.453125 4.21875 -3.015625 C 4.632812 -2.585938 5.1875 -2.375 5.875 -2.375 C 6.28125 -2.375 6.671875 -2.445312 7.046875 -2.59375 Z M 7.046875 -5 "/></g></g><g style="fill:#ffc574;fill-opacity:1;"><g transform="translate(96.363772, 207.665836)"><path style="stroke:none" d="M 5.75 0.21875 C 4.726562 0.21875 3.8125 0.00390625 3 -0.421875 C 2.1875 -0.847656 1.546875 -1.4375 1.078125 -2.1875 C 0.617188 -2.9375 0.390625 -3.785156 0.390625 -4.734375 C 0.390625 -5.679688 0.617188 -6.53125 1.078125 -7.28125 C 1.546875 -8.039062 2.1875 -8.632812 3 -9.0625 C 3.8125 -9.488281 4.726562 -9.703125 5.75 -9.703125 C 6.769531 -9.703125 7.6875 -9.488281 8.5 -9.0625 C 9.3125 -8.632812 9.945312 -8.039062 10.40625 -7.28125 C 10.863281 -6.53125 11.09375 -5.679688 11.09375 -4.734375 C 11.09375 -3.785156 10.863281 -2.9375 10.40625 -2.1875 C 9.945312 -1.4375 9.3125 -0.847656 8.5 -0.421875 C 7.6875 0.00390625 6.769531 0.21875 5.75 0.21875 Z M 5.75 -2.375 C 6.144531 -2.375 6.5 -2.46875 6.8125 -2.65625 C 7.132812 -2.851562 7.390625 -3.128906 7.578125 -3.484375 C 7.773438 -3.847656 7.875 -4.265625 7.875 -4.734375 C 7.875 -5.210938 7.773438 -5.628906 7.578125 -5.984375 C 7.390625 -6.347656 7.132812 -6.625 6.8125 -6.8125 C 6.5 -7.007812 6.144531 -7.109375 5.75 -7.109375 C 5.34375 -7.109375 4.976562 -7.007812 4.65625 -6.8125 C 4.34375 -6.625 4.085938 -6.347656 3.890625 -5.984375 C 3.703125 -5.628906 3.609375 -5.210938 3.609375 -4.734375 C 3.609375 -4.265625 3.703125 -3.847656 3.890625 -3.484375 C 4.085938 -3.128906 4.34375 -2.851562 4.65625 -2.65625 C 4.976562 -2.46875 5.34375 -2.375 5.75 -2.375 Z M 4.25 -10.140625 C 3.894531 -10.140625 3.601562 -10.25 3.375 -10.46875 C 3.144531 -10.695312 3.03125 -10.988281 3.03125 -11.34375 C 3.03125 -11.6875 3.144531 -11.972656 3.375 -12.203125 C 3.601562 -12.429688 3.894531 -12.546875 4.25 -12.546875 C 4.59375 -12.546875 4.878906 -12.429688 5.109375 -12.203125 C 5.347656 -11.972656 5.46875 -11.6875 5.46875 -11.34375 C 5.46875 -10.988281 5.347656 -10.695312 5.109375 -10.46875 C 4.878906 -10.25 4.59375 -10.140625 4.25 -10.140625 Z M 7.25 -10.140625 C 6.894531 -10.140625 6.601562 -10.25 6.375 -10.46875 C 6.144531 -10.695312 6.03125 -10.988281 6.03125 -11.34375 C 6.03125 -11.6875 6.144531 -11.972656 6.375 -12.203125 C 6.601562 -12.429688 6.894531 -12.546875 7.25 -12.546875 C 7.601562 -12.546875 7.894531 -12.429688 8.125 -12.203125 C 8.351562 -11.972656 8.46875 -11.6875 8.46875 -11.34375 C 8.46875 -10.988281 8.351562 -10.695312 8.125 -10.46875 C 7.894531 -10.25 7.601562 -10.140625 7.25 -10.140625 Z M 7.25 -10.140625 "/></g></g><g style="fill:#ffc574;fill-opacity:1;"><g transform="translate(112.297114, 207.665836)"><path style="stroke:none" d="M 10.125 -9.484375 L 10.125 0 L 7.484375 0 L 3.890625 -4.3125 L 3.890625 0 L 0.765625 0 L 0.765625 -9.484375 L 3.40625 -9.484375 L 7 -5.171875 L 7 -9.484375 Z M 10.125 -9.484375 "/></g></g><g style="fill:#ffc574;fill-opacity:1;"><g transform="translate(127.634371, 207.665836)"><path style="stroke:none" d="M 5.3125 0.21875 C 3.851562 0.21875 2.71875 -0.171875 1.90625 -0.953125 C 1.09375 -1.742188 0.6875 -2.847656 0.6875 -4.265625 L 0.6875 -9.484375 L 3.890625 -9.484375 L 3.890625 -4.359375 C 3.890625 -3.660156 4.015625 -3.15625 4.265625 -2.84375 C 4.515625 -2.53125 4.875 -2.375 5.34375 -2.375 C 5.8125 -2.375 6.164062 -2.53125 6.40625 -2.84375 C 6.65625 -3.15625 6.78125 -3.660156 6.78125 -4.359375 L 6.78125 -9.484375 L 9.9375 -9.484375 L 9.9375 -4.265625 C 9.9375 -2.847656 9.523438 -1.742188 8.703125 -0.953125 C 7.890625 -0.171875 6.757812 0.21875 5.3125 0.21875 Z M 3.84375 -10.140625 C 3.488281 -10.140625 3.195312 -10.25 2.96875 -10.46875 C 2.738281 -10.695312 2.625 -10.988281 2.625 -11.34375 C 2.625 -11.6875 2.738281 -11.972656 2.96875 -12.203125 C 3.195312 -12.429688 3.488281 -12.546875 3.84375 -12.546875 C 4.1875 -12.546875 4.472656 -12.429688 4.703125 -12.203125 C 4.941406 -11.972656 5.0625 -11.6875 5.0625 -11.34375 C 5.0625 -10.988281 4.941406 -10.695312 4.703125 -10.46875 C 4.472656 -10.25 4.1875 -10.140625 3.84375 -10.140625 Z M 6.84375 -10.140625 C 6.488281 -10.140625 6.195312 -10.25 5.96875 -10.46875 C 5.738281 -10.695312 5.625 -10.988281 5.625 -11.34375 C 5.625 -11.6875 5.738281 -11.972656 5.96875 -12.203125 C 6.195312 -12.429688 6.488281 -12.546875 6.84375 -12.546875 C 7.195312 -12.546875 7.488281 -12.429688 7.71875 -12.203125 C 7.945312 -11.972656 8.0625 -11.6875 8.0625 -11.34375 C 8.0625 -10.988281 7.945312 -10.695312 7.71875 -10.46875 C 7.488281 -10.25 7.195312 -10.140625 6.84375 -10.140625 Z M 6.84375 -10.140625 "/></g></g><g style="fill:#ffc574;fill-opacity:1;"><g transform="translate(142.700688, 207.665836)"><path style="stroke:none" d="M 0.765625 -9.484375 L 3.96875 -9.484375 L 3.96875 -2.484375 L 8.25 -2.484375 L 8.25 0 L 0.765625 0 Z M 0.765625 -9.484375 "/></g></g><g style="fill:#ffc574;fill-opacity:1;"><g transform="translate(155.504599, 207.665836)"><path style="stroke:none" d=""/></g></g><g style="fill:#ffc574;fill-opacity:1;"><g transform="translate(164.014033, 207.665836)"><path style="stroke:none" d="M 4.84375 -2.390625 L 3.96875 -2.390625 L 3.96875 0 L 0.765625 0 L 0.765625 -9.484375 L 5.34375 -9.484375 C 6.21875 -9.484375 6.976562 -9.335938 7.625 -9.046875 C 8.28125 -8.753906 8.78125 -8.335938 9.125 -7.796875 C 9.476562 -7.253906 9.65625 -6.625 9.65625 -5.90625 C 9.65625 -5.226562 9.5 -4.632812 9.1875 -4.125 C 8.882812 -3.625 8.445312 -3.222656 7.875 -2.921875 L 9.859375 0 L 6.453125 0 Z M 6.4375 -5.90625 C 6.4375 -6.257812 6.328125 -6.53125 6.109375 -6.71875 C 5.890625 -6.914062 5.566406 -7.015625 5.140625 -7.015625 L 3.96875 -7.015625 L 3.96875 -4.796875 L 5.140625 -4.796875 C 5.566406 -4.796875 5.890625 -4.890625 6.109375 -5.078125 C 6.328125 -5.273438 6.4375 -5.550781 6.4375 -5.90625 Z M 6.4375 -5.90625 "/></g></g><g style="fill:#ffc574;fill-opacity:1;"><g transform="translate(178.551996, 207.665836)"><path style="stroke:none" d="M 8.65625 -2.40625 L 8.65625 0 L 0.765625 0 L 0.765625 -9.484375 L 8.484375 -9.484375 L 8.484375 -7.078125 L 3.921875 -7.078125 L 3.921875 -5.953125 L 7.921875 -5.953125 L 7.921875 -3.65625 L 3.921875 -3.65625 L 3.921875 -2.40625 Z M 8.65625 -2.40625 "/></g></g><g style="fill:#ffc574;fill-opacity:1;"><g transform="translate(192.11455, 207.665836)"><path style="stroke:none" d="M 10.125 -9.484375 L 10.125 0 L 6.921875 0 L 6.921875 -3.5 L 3.96875 -3.5 L 3.96875 0 L 0.765625 0 L 0.765625 -9.484375 L 3.96875 -9.484375 L 3.96875 -6.125 L 6.921875 -6.125 L 6.921875 -9.484375 Z M 10.125 -9.484375 "/></g></g><g style="fill:#ffc574;fill-opacity:1;"><g transform="translate(207.451807, 207.665836)"><path style="stroke:none" d="M 8.359375 -4.953125 C 8.921875 -4.742188 9.351562 -4.441406 9.65625 -4.046875 C 9.96875 -3.648438 10.125 -3.171875 10.125 -2.609375 C 10.125 -1.785156 9.78125 -1.144531 9.09375 -0.6875 C 8.40625 -0.226562 7.410156 0 6.109375 0 L 0.765625 0 L 0.765625 -9.484375 L 5.84375 -9.484375 C 7.101562 -9.484375 8.054688 -9.253906 8.703125 -8.796875 C 9.347656 -8.347656 9.671875 -7.75 9.671875 -7 C 9.671875 -6.5625 9.5625 -6.164062 9.34375 -5.8125 C 9.125 -5.457031 8.796875 -5.171875 8.359375 -4.953125 Z M 3.921875 -7.25 L 3.921875 -5.84375 L 5.40625 -5.84375 C 6.101562 -5.84375 6.453125 -6.078125 6.453125 -6.546875 C 6.453125 -7.015625 6.101562 -7.25 5.40625 -7.25 Z M 5.84375 -2.234375 C 6.539062 -2.234375 6.890625 -2.484375 6.890625 -2.984375 C 6.890625 -3.472656 6.539062 -3.71875 5.84375 -3.71875 L 3.921875 -3.71875 L 3.921875 -2.234375 Z M 5.84375 -2.234375 "/></g></g><g style="fill:#ffc574;fill-opacity:1;"><g transform="translate(222.369091, 207.665836)"><path style="stroke:none" d="M 8.65625 -2.40625 L 8.65625 0 L 0.765625 0 L 0.765625 -9.484375 L 8.484375 -9.484375 L 8.484375 -7.078125 L 3.921875 -7.078125 L 3.921875 -5.953125 L 7.921875 -5.953125 L 7.921875 -3.65625 L 3.921875 -3.65625 L 3.921875 -2.40625 Z M 8.65625 -2.40625 "/></g></g><g style="fill:#ffc574;fill-opacity:1;"><g transform="translate(235.931645, 207.665836)"><path style="stroke:none" d="M 4.84375 -2.390625 L 3.96875 -2.390625 L 3.96875 0 L 0.765625 0 L 0.765625 -9.484375 L 5.34375 -9.484375 C 6.21875 -9.484375 6.976562 -9.335938 7.625 -9.046875 C 8.28125 -8.753906 8.78125 -8.335938 9.125 -7.796875 C 9.476562 -7.253906 9.65625 -6.625 9.65625 -5.90625 C 9.65625 -5.226562 9.5 -4.632812 9.1875 -4.125 C 8.882812 -3.625 8.445312 -3.222656 7.875 -2.921875 L 9.859375 0 L 6.453125 0 Z M 6.4375 -5.90625 C 6.4375 -6.257812 6.328125 -6.53125 6.109375 -6.71875 C 5.890625 -6.914062 5.566406 -7.015625 5.140625 -7.015625 L 3.96875 -7.015625 L 3.96875 -4.796875 L 5.140625 -4.796875 C 5.566406 -4.796875 5.890625 -4.890625 6.109375 -5.078125 C 6.328125 -5.273438 6.4375 -5.550781 6.4375 -5.90625 Z M 6.4375 -5.90625 "/></g></g><g style="fill:#ffc574;fill-opacity:1;"><g transform="translate(250.469607, 207.665836)"><path style="stroke:none" d="M 0.765625 -9.484375 L 3.96875 -9.484375 L 3.96875 0 L 0.765625 0 Z M 2.375 -10.125 C 1.925781 -10.125 1.554688 -10.265625 1.265625 -10.546875 C 0.972656 -10.835938 0.828125 -11.207031 0.828125 -11.65625 C 0.828125 -12.113281 0.972656 -12.484375 1.265625 -12.765625 C 1.554688 -13.054688 1.925781 -13.203125 2.375 -13.203125 C 2.820312 -13.203125 3.191406 -13.054688 3.484375 -12.765625 C 3.773438 -12.484375 3.921875 -12.113281 3.921875 -11.65625 C 3.921875 -11.207031 3.773438 -10.835938 3.484375 -10.546875 C 3.191406 -10.265625 2.820312 -10.125 2.375 -10.125 Z M 2.375 -10.125 "/></g></g><g style="fill:#ffc574;fill-opacity:1;"><g transform="translate(259.656399, 207.665836)"><path style="stroke:none" d="M 10.125 -9.484375 L 10.125 0 L 7.484375 0 L 3.890625 -4.3125 L 3.890625 0 L 0.765625 0 L 0.765625 -9.484375 L 3.40625 -9.484375 L 7 -5.171875 L 7 -9.484375 Z M 10.125 -9.484375 "/></g></g><g style="fill:#ffc574;fill-opacity:1;"><g transform="translate(274.993656, 207.665836)"><path style="stroke:none" d="M 0.765625 -9.484375 L 3.96875 -9.484375 L 3.96875 0 L 0.765625 0 Z M 2.375 -10.125 C 1.925781 -10.125 1.554688 -10.265625 1.265625 -10.546875 C 0.972656 -10.835938 0.828125 -11.207031 0.828125 -11.65625 C 0.828125 -12.113281 0.972656 -12.484375 1.265625 -12.765625 C 1.554688 -13.054688 1.925781 -13.203125 2.375 -13.203125 C 2.820312 -13.203125 3.191406 -13.054688 3.484375 -12.765625 C 3.773438 -12.484375 3.921875 -12.113281 3.921875 -11.65625 C 3.921875 -11.207031 3.773438 -10.835938 3.484375 -10.546875 C 3.191406 -10.265625 2.820312 -10.125 2.375 -10.125 Z M 2.375 -10.125 "/></g></g><g style="fill:#ffc574;fill-opacity:1;"><g transform="translate(284.180447, 207.665836)"><path style="stroke:none" d="M 9.140625 -2.484375 L 9.140625 0 L 0.4375 0 L 0.4375 -1.96875 L 4.765625 -7 L 0.5625 -7 L 0.5625 -9.484375 L 8.921875 -9.484375 L 8.921875 -7.515625 L 4.59375 -2.484375 Z M 9.140625 -2.484375 "/></g></g></g></svg>